<svg xmlns="http://www.w3.org/2000/svg" xmlns:xlink="http://www.w3.org/1999/xlink" width="500" zoomAndPan="magnify" viewBox="0 0 375 374.999991" height="500" preserveAspectRatio="xMidYMid meet" version="1.0"><defs><g/><clipPath id="aaa5e0d863"><path d="M 106.835938 117 L 268.085938 117 L 268.085938 202.597656 L 106.835938 202.597656 Z M 106.835938 117 " clip-rule="nonzero"/></clipPath></defs><path fill="#d62323" d="M 192.855469 97.253906 C 193.050781 97.542969 193.210938 97.851562 193.371094 98.15625 C 193.613281 98.027344 193.855469 97.898438 194.113281 97.800781 C 194.175781 97.769531 194.257812 97.738281 194.324219 97.703125 C 195.773438 97.15625 197.257812 97.125 199.011719 97.671875 C 200.964844 98.300781 202.492188 99.65625 203.363281 101.332031 C 204.234375 103.007812 204.460938 105.039062 203.847656 106.988281 C 202.882812 110.003906 200.558594 112.453125 197.53125 114.597656 C 194.742188 116.59375 191.371094 118.320312 188.019531 120.058594 C 186.957031 120.609375 185.636719 120.1875 185.085938 119.125 C 183.347656 115.773438 181.621094 112.421875 180.492188 109.164062 C 179.269531 105.667969 178.785156 102.316406 179.734375 99.300781 C 180.363281 97.351562 181.71875 95.820312 183.394531 94.949219 C 185.070312 94.078125 187.101562 93.851562 189.050781 94.464844 C 190.792969 95.0625 192 95.949219 192.855469 97.253906 Z M 190.003906 102.136719 C 189.824219 101.042969 189.601562 100.21875 189.230469 99.65625 L 189.230469 99.640625 C 188.9375 99.1875 188.457031 98.867188 187.730469 98.640625 C 186.925781 98.382812 186.085938 98.480469 185.394531 98.847656 C 184.699219 99.203125 184.136719 99.832031 183.878906 100.636719 C 183.25 102.621094 183.667969 105.070312 184.605469 107.746094 C 185.425781 110.082031 186.652344 112.628906 187.957031 115.191406 C 190.503906 113.855469 192.96875 112.5 195 111.050781 C 197.304688 109.40625 199.0625 107.648438 199.691406 105.667969 C 199.949219 104.859375 199.851562 104.023438 199.480469 103.328125 C 199.125 102.636719 198.496094 102.074219 197.691406 101.816406 C 196.949219 101.574219 196.371094 101.574219 195.871094 101.765625 L 195.757812 101.816406 C 195.160156 102.074219 194.5 102.636719 193.742188 103.410156 C 192.902344 104.28125 191.519531 104.296875 190.664062 103.457031 C 190.277344 103.105469 190.066406 102.621094 190.003906 102.136719 Z M 190.003906 102.136719 " fill-opacity="1" fill-rule="evenodd"/><g clip-path="url(#aaa5e0d863)"><path fill="#2a2929" d="M 250.652344 187.59375 C 250.136719 187.800781 249.605469 188.011719 249.058594 188.1875 C 250.265625 189.800781 251.425781 192.039062 251.71875 194.941406 C 251.828125 196.054688 251.007812 197.054688 249.894531 197.148438 C 248.785156 197.261719 247.785156 196.441406 247.6875 195.3125 C 247.382812 192.25 245.722656 190.269531 244.625 189.285156 C 243.769531 189.429688 242.902344 189.527344 242.046875 189.574219 C 243.769531 191.332031 244.949219 193.363281 245.722656 196.039062 C 246.027344 197.085938 247.027344 197.957031 248.234375 198.421875 C 248.863281 198.664062 249.542969 198.777344 250.167969 198.746094 C 250.71875 198.714844 251.25 198.535156 251.667969 198.214844 C 252.378906 197.664062 252.910156 196.617188 252.992188 194.910156 C 253.230469 189.832031 251.539062 188.125 250.652344 187.59375 Z M 253.652344 170.332031 C 253.152344 174.019531 252.039062 179.195312 249.589844 183.609375 C 251.152344 182.917969 252.636719 182.046875 253.957031 181 C 256.84375 178.726562 259.082031 174.746094 260.726562 170.410156 L 260.773438 170.296875 C 258.648438 170.410156 256.277344 170.425781 253.652344 170.332031 Z M 233.199219 133.226562 C 231.117188 133.226562 229.425781 135.917969 229.425781 139.222656 C 229.425781 142.527344 231.117188 145.21875 233.199219 145.21875 C 235.277344 145.21875 236.96875 142.527344 236.96875 139.222656 C 236.96875 135.902344 235.277344 133.226562 233.199219 133.226562 Z M 241.980469 172.667969 C 240.871094 172.667969 239.96875 173.570312 239.96875 174.683594 C 239.96875 175.792969 240.871094 176.695312 241.980469 176.695312 C 243.09375 176.695312 243.996094 175.792969 243.996094 174.683594 C 243.996094 173.570312 243.09375 172.667969 241.980469 172.667969 Z M 236.390625 167.332031 C 235.277344 167.332031 234.375 168.234375 234.375 169.347656 C 234.375 170.460938 235.277344 171.363281 236.390625 171.363281 C 237.5 171.363281 238.402344 170.460938 238.402344 169.347656 C 238.402344 168.234375 237.5 167.332031 236.390625 167.332031 Z M 234.535156 174.601562 C 233.421875 174.601562 232.519531 175.503906 232.519531 176.617188 C 232.519531 177.726562 233.421875 178.632812 234.535156 178.632812 C 235.648438 178.632812 236.550781 177.726562 236.550781 176.617188 C 236.550781 175.503906 235.648438 174.601562 234.535156 174.601562 Z M 215.597656 133.648438 C 213.519531 133.648438 211.824219 136.339844 211.824219 139.644531 C 211.824219 142.945312 213.519531 145.636719 215.597656 145.636719 C 217.675781 145.636719 219.371094 142.960938 219.371094 139.644531 C 219.371094 136.324219 217.675781 133.648438 215.597656 133.648438 Z M 157.253906 150.523438 C 157.253906 150.539062 159.75 156.421875 157.621094 157.4375 C 155.445312 158.484375 153.527344 155.066406 153.511719 155.066406 C 152.964844 154.082031 151.722656 153.746094 150.742188 154.308594 C 150.078125 154.679688 149.710938 155.355469 149.710938 156.066406 C 149.691406 156.484375 149.46875 159.160156 147.066406 159.449219 C 145.003906 159.691406 145.132812 153.277344 145.132812 153.261719 C 145.148438 152.148438 144.261719 151.214844 143.132812 151.199219 C 142.003906 151.183594 141.085938 152.070312 141.070312 153.199219 C 141.070312 153.230469 140.84375 164.300781 147.535156 163.496094 C 150.242188 163.175781 151.773438 161.707031 152.644531 160.175781 C 154.285156 161.480469 156.589844 162.433594 159.347656 161.109375 C 165.019531 158.402344 160.992188 149.023438 160.976562 148.992188 C 160.554688 147.960938 159.363281 147.460938 158.332031 147.878906 C 157.316406 148.296875 156.832031 149.472656 157.253906 150.523438 Z M 186.101562 146.960938 C 184.621094 150.828125 182.589844 158.386719 181.074219 166.140625 C 179.6875 173.183594 178.753906 180.308594 179.058594 184.804688 C 179.1875 186.769531 179.898438 188.125 180.929688 188.996094 C 181.605469 189.574219 182.460938 189.960938 183.394531 190.203125 C 184.425781 190.460938 185.554688 190.527344 186.699219 190.460938 C 190.132812 190.21875 193.644531 188.6875 195.417969 186.609375 C 199.542969 181.726562 197.496094 173.394531 195.789062 167.960938 C 193.660156 161.191406 190.082031 153.824219 186.101562 146.960938 Z M 213.96875 168.332031 C 213.535156 169.363281 212.34375 169.847656 211.308594 169.410156 C 210.277344 168.976562 209.796875 167.785156 210.230469 166.753906 C 210.230469 166.734375 212.421875 161.609375 218.417969 159.273438 C 219.464844 158.871094 220.640625 159.386719 221.046875 160.433594 C 221.449219 161.480469 220.933594 162.660156 219.886719 163.0625 C 218.902344 163.449219 218.0625 163.914062 217.355469 164.414062 C 218.078125 166.398438 220.109375 169.894531 222.722656 173.503906 C 225.089844 176.777344 227.894531 180.097656 230.636719 182.417969 C 231.828125 183.433594 233.261719 184.191406 234.84375 184.707031 L 234.921875 184.738281 C 236.96875 185.398438 239.257812 185.640625 241.59375 185.527344 C 242.160156 185.496094 242.707031 185.449219 243.269531 185.367188 C 243.320312 185.320312 243.367188 185.289062 243.417969 185.238281 C 247.429688 181.175781 249.007812 174.472656 249.621094 170.007812 C 239.324219 168.25 239.324219 158.097656 240.242188 152.132812 C 233.90625 152.957031 228.332031 153.921875 228.3125 153.9375 C 227.21875 154.132812 226.15625 153.40625 225.960938 152.296875 C 225.769531 151.199219 226.492188 150.136719 227.605469 149.941406 C 227.636719 149.941406 237.792969 148.152344 246.429688 147.363281 C 245.867188 144.542969 244.640625 139.464844 242.402344 133.679688 C 240.789062 129.519531 237.179688 125.925781 232.328125 123.671875 C 227.6875 121.511719 221.949219 120.574219 215.726562 121.476562 C 203.878906 123.234375 197.09375 138.851562 196.371094 140.5625 C 196.078125 141.496094 195.128906 142.109375 194.128906 141.964844 C 194.113281 141.964844 190.96875 141.464844 188.585938 143.1875 C 193.113281 150.765625 197.257812 159.097656 199.671875 166.71875 C 201.976562 174.019531 203.976562 182.773438 198.527344 189.21875 C 196.09375 192.089844 191.421875 194.199219 186.988281 194.507812 C 185.425781 194.621094 183.863281 194.507812 182.429688 194.136719 C 180.898438 193.75 179.496094 193.089844 178.316406 192.089844 C 176.480469 190.542969 175.238281 188.238281 175.015625 185.0625 C 174.675781 180.179688 175.640625 172.683594 177.09375 165.351562 C 178.929688 155.984375 181.574219 146.734375 183.183594 143.496094 C 183.3125 143.238281 183.441406 142.996094 183.589844 142.753906 C 182.394531 140.835938 181.171875 138.964844 179.960938 137.207031 C 174.109375 128.667969 168.679688 122.378906 166.535156 121.589844 C 162.363281 123.378906 160.941406 135.371094 160.894531 135.789062 C 160.796875 136.675781 160.136719 137.417969 159.21875 137.578125 L 141.554688 140.609375 C 140.507812 140.804688 139.472656 140.175781 139.199219 139.144531 C 138.828125 137.773438 136.542969 134.582031 133.769531 132.582031 C 132.738281 131.839844 131.671875 131.292969 130.707031 131.164062 C 129.949219 131.050781 129.191406 131.230469 128.53125 131.808594 C 127.339844 132.875 126.289062 135.113281 125.597656 139.0625 C 124.535156 145.105469 123.292969 154.246094 122.082031 163.964844 C 126.710938 165.238281 128.917969 166.976562 128.933594 166.992188 C 129.820312 167.6875 129.980469 168.960938 129.304688 169.847656 C 128.613281 170.734375 127.339844 170.894531 126.453125 170.21875 C 126.453125 170.21875 124.921875 169.007812 121.585938 168.007812 C 121.34375 170.007812 121.101562 172.039062 120.859375 174.039062 C 125.660156 174.859375 128.160156 177.117188 128.175781 177.117188 C 129.015625 177.855469 129.09375 179.148438 128.355469 179.984375 C 127.613281 180.824219 126.324219 180.902344 125.484375 180.164062 C 125.484375 180.164062 123.808594 178.648438 120.390625 178.035156 C 118.425781 194.925781 118.972656 190.476562 118.957031 190.558594 C 118.84375 191.671875 117.84375 192.492188 116.734375 192.378906 C 115.621094 192.265625 114.796875 191.265625 114.910156 190.15625 C 114.925781 190.074219 114.347656 194.652344 116.3125 177.839844 C 114.539062 177.953125 112.527344 178.308594 110.222656 179.050781 C 109.15625 179.386719 108.011719 178.808594 107.675781 177.746094 C 107.335938 176.679688 107.917969 175.535156 108.980469 175.183594 C 111.914062 174.230469 114.507812 173.84375 116.78125 173.78125 C 117.039062 171.570312 117.3125 169.363281 117.570312 167.15625 C 115.234375 166.800781 112.398438 166.605469 109.027344 166.785156 C 107.917969 166.832031 106.949219 165.980469 106.902344 164.851562 C 106.835938 163.738281 107.707031 162.769531 108.820312 162.722656 C 112.398438 162.53125 115.476562 162.738281 118.070312 163.140625 C 119.28125 153.472656 120.519531 144.398438 121.566406 138.386719 C 122.4375 133.453125 123.953125 130.441406 125.824219 128.796875 C 127.484375 127.328125 129.351562 126.894531 131.238281 127.167969 C 132.929688 127.410156 134.589844 128.214844 136.121094 129.328125 C 138.78125 131.246094 141.132812 134.210938 142.34375 136.386719 L 157.058594 133.871094 C 157.703125 129.90625 159.910156 119.449219 165.570312 117.660156 C 166.050781 117.511719 166.566406 117.496094 167.132812 117.609375 C 170.082031 118.207031 176.722656 125.332031 183.3125 134.96875 C 184.363281 136.5 185.425781 138.113281 186.472656 139.753906 C 188.828125 138.175781 191.503906 137.886719 193.160156 137.886719 C 195.226562 133.4375 202.671875 119.351562 215.164062 117.511719 C 222.191406 116.480469 228.75 117.5625 234.066406 120.042969 C 239.855469 122.75 244.207031 127.121094 246.203125 132.261719 C 248.671875 138.628906 249.960938 144.234375 250.523438 147.105469 L 250.796875 147.089844 C 251.976562 147.039062 253.28125 146.945312 254.488281 146.863281 C 256.050781 146.75 257.488281 146.652344 258.921875 146.636719 C 264.578125 146.558594 267.996094 147.734375 268.09375 153.988281 C 268.15625 158.144531 267.011719 165.367188 264.546875 171.894531 C 262.675781 176.84375 260.015625 181.484375 256.488281 184.257812 C 255.84375 184.773438 255.148438 185.238281 254.457031 185.691406 C 255.941406 187.382812 257.292969 190.269531 257.050781 195.167969 C 256.890625 198.246094 255.746094 200.292969 254.117188 201.519531 C 253.023438 202.339844 251.75 202.757812 250.445312 202.855469 C 249.21875 202.9375 247.945312 202.726562 246.769531 202.273438 C 244.480469 201.390625 242.496094 199.550781 241.820312 197.230469 C 241.242188 195.199219 240.355469 193.683594 239.082031 192.394531 C 237.742188 191.058594 235.90625 189.882812 233.472656 188.589844 C 231.441406 187.914062 229.605469 186.914062 228.023438 185.59375 C 225.027344 183.046875 221.980469 179.46875 219.433594 175.9375 C 217.273438 172.957031 215.46875 169.976562 214.339844 167.6875 C 214.082031 168.058594 213.96875 168.332031 213.96875 168.332031 Z M 213.96875 168.332031 " fill-opacity="1" fill-rule="evenodd"/></g><path fill="#2a2929" d="M 132.078125 150.652344 C 133.574219 150.410156 135.1875 152.683594 135.671875 155.726562 C 136.15625 158.773438 135.347656 161.433594 133.847656 161.675781 C 132.351562 161.917969 130.738281 159.644531 130.253906 156.597656 C 129.753906 153.550781 130.578125 150.894531 132.078125 150.652344 Z M 132.078125 150.652344 " fill-opacity="1" fill-rule="evenodd"/><path fill="#2a2929" d="M 170.035156 144.671875 C 171.53125 144.429688 173.144531 146.703125 173.628906 149.75 C 174.109375 152.792969 173.304688 155.453125 171.804688 155.695312 C 170.308594 155.9375 168.695312 153.664062 168.210938 150.617188 C 167.710938 147.574219 168.535156 144.914062 170.035156 144.671875 Z M 170.035156 144.671875 " fill-opacity="1" fill-rule="evenodd"/><g fill="#2a2929" fill-opacity="1"><g transform="translate(103.299878, 276.375217)"><g><path d="M 5.3125 -10.21875 C 5.8125 -10.21875 6.285156 -10.066406 6.734375 -9.765625 C 7.179688 -9.472656 7.539062 -9.078125 7.8125 -8.578125 C 8.082031 -8.078125 8.21875 -7.53125 8.21875 -6.9375 C 8.21875 -6.351562 8.082031 -5.804688 7.8125 -5.296875 C 7.539062 -4.785156 7.179688 -4.382812 6.734375 -4.09375 C 6.285156 -3.800781 5.8125 -3.65625 5.3125 -3.65625 L 2.765625 -3.65625 L 2.765625 -0.890625 C 2.765625 -0.628906 2.6875 -0.414062 2.53125 -0.25 C 2.382812 -0.0820312 2.179688 0 1.921875 0 C 1.679688 0 1.484375 -0.0820312 1.328125 -0.25 C 1.171875 -0.425781 1.09375 -0.640625 1.09375 -0.890625 L 1.09375 -9.328125 C 1.09375 -9.578125 1.175781 -9.785156 1.34375 -9.953125 C 1.519531 -10.128906 1.734375 -10.21875 1.984375 -10.21875 Z M 5.3125 -5.3125 C 5.5 -5.3125 5.679688 -5.390625 5.859375 -5.546875 C 6.035156 -5.703125 6.179688 -5.90625 6.296875 -6.15625 C 6.410156 -6.40625 6.46875 -6.664062 6.46875 -6.9375 C 6.46875 -7.207031 6.410156 -7.460938 6.296875 -7.703125 C 6.179688 -7.953125 6.035156 -8.148438 5.859375 -8.296875 C 5.679688 -8.453125 5.5 -8.53125 5.3125 -8.53125 L 2.765625 -8.53125 L 2.765625 -5.3125 Z M 5.3125 -5.3125 "/></g></g></g><g fill="#2a2929" fill-opacity="1"><g transform="translate(112.97324, 276.375217)"><g><path d="M 7.953125 -4.09375 C 7.941406 -3.851562 7.847656 -3.660156 7.671875 -3.515625 C 7.492188 -3.367188 7.289062 -3.296875 7.0625 -3.296875 L 2.25 -3.296875 C 2.363281 -2.722656 2.628906 -2.269531 3.046875 -1.9375 C 3.460938 -1.613281 3.9375 -1.453125 4.46875 -1.453125 C 4.863281 -1.453125 5.171875 -1.488281 5.390625 -1.5625 C 5.617188 -1.632812 5.796875 -1.710938 5.921875 -1.796875 C 6.054688 -1.878906 6.148438 -1.9375 6.203125 -1.96875 C 6.378906 -2.050781 6.546875 -2.09375 6.703125 -2.09375 C 6.898438 -2.09375 7.070312 -2.019531 7.21875 -1.875 C 7.363281 -1.726562 7.4375 -1.5625 7.4375 -1.375 C 7.4375 -1.113281 7.300781 -0.875 7.03125 -0.65625 C 6.757812 -0.4375 6.394531 -0.25 5.9375 -0.09375 C 5.476562 0.0625 5.015625 0.140625 4.546875 0.140625 C 3.734375 0.140625 3.019531 -0.0234375 2.40625 -0.359375 C 1.800781 -0.703125 1.332031 -1.171875 1 -1.765625 C 0.675781 -2.367188 0.515625 -3.046875 0.515625 -3.796875 C 0.515625 -4.628906 0.6875 -5.363281 1.03125 -6 C 1.382812 -6.632812 1.847656 -7.117188 2.421875 -7.453125 C 2.992188 -7.785156 3.609375 -7.953125 4.265625 -7.953125 C 4.898438 -7.953125 5.503906 -7.773438 6.078125 -7.421875 C 6.648438 -7.078125 7.101562 -6.609375 7.4375 -6.015625 C 7.78125 -5.421875 7.953125 -4.78125 7.953125 -4.09375 Z M 4.265625 -6.34375 C 3.128906 -6.34375 2.460938 -5.8125 2.265625 -4.75 L 6.078125 -4.75 L 6.078125 -4.859375 C 6.046875 -5.265625 5.847656 -5.613281 5.484375 -5.90625 C 5.128906 -6.195312 4.722656 -6.34375 4.265625 -6.34375 Z M 4.265625 -6.34375 "/></g></g></g><g fill="#2a2929" fill-opacity="1"><g transform="translate(122.311039, 276.375217)"><g><path d="M 4.71875 -1.65625 C 4.851562 -1.65625 4.972656 -1.585938 5.078125 -1.453125 C 5.191406 -1.316406 5.25 -1.144531 5.25 -0.9375 C 5.25 -0.675781 5.101562 -0.453125 4.8125 -0.265625 C 4.53125 -0.0859375 4.210938 0 3.859375 0 C 3.253906 0 2.742188 -0.128906 2.328125 -0.390625 C 1.910156 -0.648438 1.703125 -1.195312 1.703125 -2.03125 L 1.703125 -6.0625 L 1.03125 -6.0625 C 0.800781 -6.0625 0.609375 -6.140625 0.453125 -6.296875 C 0.296875 -6.453125 0.21875 -6.644531 0.21875 -6.875 C 0.21875 -7.09375 0.296875 -7.273438 0.453125 -7.421875 C 0.609375 -7.578125 0.800781 -7.65625 1.03125 -7.65625 L 1.703125 -7.65625 L 1.703125 -8.59375 C 1.703125 -8.84375 1.785156 -9.050781 1.953125 -9.21875 C 2.128906 -9.394531 2.34375 -9.484375 2.59375 -9.484375 C 2.84375 -9.484375 3.046875 -9.394531 3.203125 -9.21875 C 3.367188 -9.050781 3.453125 -8.84375 3.453125 -8.59375 L 3.453125 -7.65625 L 4.5 -7.65625 C 4.726562 -7.65625 4.921875 -7.578125 5.078125 -7.421875 C 5.234375 -7.265625 5.3125 -7.070312 5.3125 -6.84375 C 5.3125 -6.625 5.234375 -6.4375 5.078125 -6.28125 C 4.921875 -6.132812 4.726562 -6.0625 4.5 -6.0625 L 3.453125 -6.0625 L 3.453125 -2.09375 C 3.453125 -1.894531 3.503906 -1.75 3.609375 -1.65625 C 3.722656 -1.5625 3.875 -1.515625 4.0625 -1.515625 C 4.132812 -1.515625 4.238281 -1.535156 4.375 -1.578125 C 4.488281 -1.628906 4.601562 -1.65625 4.71875 -1.65625 Z M 4.71875 -1.65625 "/></g></g></g><g fill="#2a2929" fill-opacity="1"><g transform="translate(129.153979, 276.375217)"><g/></g></g><g fill="#d62323" fill-opacity="1"><g transform="translate(134.120188, 276.375217)"><g><path d="M 7.21875 -5.65625 C 7.738281 -5.457031 8.160156 -5.144531 8.484375 -4.71875 C 8.804688 -4.300781 8.96875 -3.765625 8.96875 -3.109375 C 8.96875 -1.953125 8.632812 -1.144531 7.96875 -0.6875 C 7.3125 -0.226562 6.53125 0 5.625 0 L 1.984375 0 C 1.734375 0 1.519531 -0.0820312 1.34375 -0.25 C 1.175781 -0.425781 1.09375 -0.640625 1.09375 -0.890625 L 1.09375 -9.328125 C 1.09375 -9.578125 1.175781 -9.785156 1.34375 -9.953125 C 1.519531 -10.128906 1.734375 -10.21875 1.984375 -10.21875 L 5.65625 -10.21875 C 7.507812 -10.21875 8.4375 -9.351562 8.4375 -7.625 C 8.4375 -7.1875 8.332031 -6.796875 8.125 -6.453125 C 7.914062 -6.117188 7.613281 -5.851562 7.21875 -5.65625 Z M 6.53125 -7.296875 C 6.53125 -7.691406 6.429688 -7.988281 6.234375 -8.1875 C 6.035156 -8.394531 5.757812 -8.5 5.40625 -8.5 L 2.984375 -8.5 L 2.984375 -6.21875 L 5.4375 -6.21875 C 5.726562 -6.21875 5.984375 -6.3125 6.203125 -6.5 C 6.421875 -6.695312 6.53125 -6.960938 6.53125 -7.296875 Z M 5.625 -1.671875 C 6.070312 -1.671875 6.425781 -1.789062 6.6875 -2.03125 C 6.945312 -2.28125 7.078125 -2.640625 7.078125 -3.109375 C 7.078125 -3.679688 6.925781 -4.054688 6.625 -4.234375 C 6.320312 -4.410156 5.953125 -4.5 5.515625 -4.5 L 2.984375 -4.5 L 2.984375 -1.671875 Z M 5.625 -1.671875 "/></g></g></g><g fill="#d62323" fill-opacity="1"><g transform="translate(144.552214, 276.375217)"><g><path d="M 2.84375 -0.890625 C 2.84375 -0.640625 2.753906 -0.425781 2.578125 -0.25 C 2.410156 -0.0820312 2.203125 0 1.953125 0 C 1.710938 0 1.507812 -0.0820312 1.34375 -0.25 C 1.175781 -0.425781 1.09375 -0.640625 1.09375 -0.890625 L 1.09375 -9.90625 C 1.09375 -10.15625 1.175781 -10.363281 1.34375 -10.53125 C 1.519531 -10.707031 1.734375 -10.796875 1.984375 -10.796875 C 2.222656 -10.796875 2.425781 -10.707031 2.59375 -10.53125 C 2.757812 -10.363281 2.84375 -10.15625 2.84375 -9.90625 Z M 2.84375 -0.890625 "/></g></g></g><g fill="#d62323" fill-opacity="1"><g transform="translate(149.367171, 276.375217)"><g><path d="M 8.453125 -3.890625 C 8.453125 -3.117188 8.273438 -2.421875 7.921875 -1.796875 C 7.578125 -1.179688 7.097656 -0.703125 6.484375 -0.359375 C 5.878906 -0.0234375 5.210938 0.140625 4.484375 0.140625 C 3.742188 0.140625 3.070312 -0.0234375 2.46875 -0.359375 C 1.863281 -0.703125 1.382812 -1.179688 1.03125 -1.796875 C 0.6875 -2.421875 0.515625 -3.117188 0.515625 -3.890625 C 0.515625 -4.671875 0.6875 -5.367188 1.03125 -5.984375 C 1.382812 -6.609375 1.863281 -7.09375 2.46875 -7.4375 C 3.070312 -7.78125 3.742188 -7.953125 4.484375 -7.953125 C 5.210938 -7.953125 5.878906 -7.78125 6.484375 -7.4375 C 7.097656 -7.09375 7.578125 -6.609375 7.921875 -5.984375 C 8.273438 -5.367188 8.453125 -4.671875 8.453125 -3.890625 Z M 6.703125 -3.890625 C 6.703125 -4.367188 6.597656 -4.796875 6.390625 -5.171875 C 6.191406 -5.546875 5.925781 -5.832031 5.59375 -6.03125 C 5.257812 -6.238281 4.890625 -6.34375 4.484375 -6.34375 C 4.078125 -6.34375 3.703125 -6.238281 3.359375 -6.03125 C 3.023438 -5.832031 2.757812 -5.546875 2.5625 -5.171875 C 2.363281 -4.796875 2.265625 -4.367188 2.265625 -3.890625 C 2.265625 -3.421875 2.363281 -3 2.5625 -2.625 C 2.757812 -2.257812 3.023438 -1.972656 3.359375 -1.765625 C 3.703125 -1.554688 4.078125 -1.453125 4.484375 -1.453125 C 4.890625 -1.453125 5.257812 -1.554688 5.59375 -1.765625 C 5.925781 -1.972656 6.191406 -2.257812 6.390625 -2.625 C 6.597656 -3 6.703125 -3.421875 6.703125 -3.890625 Z M 6.703125 -3.890625 "/></g></g></g><g fill="#d62323" fill-opacity="1"><g transform="translate(159.201012, 276.375217)"><g><path d="M 8.453125 -3.890625 C 8.453125 -3.117188 8.273438 -2.421875 7.921875 -1.796875 C 7.578125 -1.179688 7.097656 -0.703125 6.484375 -0.359375 C 5.878906 -0.0234375 5.210938 0.140625 4.484375 0.140625 C 3.742188 0.140625 3.070312 -0.0234375 2.46875 -0.359375 C 1.863281 -0.703125 1.382812 -1.179688 1.03125 -1.796875 C 0.6875 -2.421875 0.515625 -3.117188 0.515625 -3.890625 C 0.515625 -4.671875 0.6875 -5.367188 1.03125 -5.984375 C 1.382812 -6.609375 1.863281 -7.09375 2.46875 -7.4375 C 3.070312 -7.78125 3.742188 -7.953125 4.484375 -7.953125 C 5.210938 -7.953125 5.878906 -7.78125 6.484375 -7.4375 C 7.097656 -7.09375 7.578125 -6.609375 7.921875 -5.984375 C 8.273438 -5.367188 8.453125 -4.671875 8.453125 -3.890625 Z M 6.703125 -3.890625 C 6.703125 -4.367188 6.597656 -4.796875 6.390625 -5.171875 C 6.191406 -5.546875 5.925781 -5.832031 5.59375 -6.03125 C 5.257812 -6.238281 4.890625 -6.34375 4.484375 -6.34375 C 4.078125 -6.34375 3.703125 -6.238281 3.359375 -6.03125 C 3.023438 -5.832031 2.757812 -5.546875 2.5625 -5.171875 C 2.363281 -4.796875 2.265625 -4.367188 2.265625 -3.890625 C 2.265625 -3.421875 2.363281 -3 2.5625 -2.625 C 2.757812 -2.257812 3.023438 -1.972656 3.359375 -1.765625 C 3.703125 -1.554688 4.078125 -1.453125 4.484375 -1.453125 C 4.890625 -1.453125 5.257812 -1.554688 5.59375 -1.765625 C 5.925781 -1.972656 6.191406 -2.257812 6.390625 -2.625 C 6.597656 -3 6.703125 -3.421875 6.703125 -3.890625 Z M 6.703125 -3.890625 "/></g></g></g><g fill="#d62323" fill-opacity="1"><g transform="translate(169.034857, 276.375217)"><g><path d="M 7.265625 -10.796875 C 7.515625 -10.796875 7.722656 -10.710938 7.890625 -10.546875 C 8.054688 -10.378906 8.140625 -10.164062 8.140625 -9.90625 L 8.140625 -0.890625 C 8.140625 -0.640625 8.054688 -0.425781 7.890625 -0.25 C 7.722656 -0.0820312 7.515625 0 7.265625 0 C 7.015625 0 6.804688 -0.0820312 6.640625 -0.25 C 6.484375 -0.414062 6.398438 -0.625 6.390625 -0.875 C 6.148438 -0.59375 5.820312 -0.351562 5.40625 -0.15625 C 4.988281 0.0390625 4.550781 0.140625 4.09375 0.140625 C 3.425781 0.140625 2.816406 -0.03125 2.265625 -0.375 C 1.722656 -0.71875 1.296875 -1.195312 0.984375 -1.8125 C 0.671875 -2.425781 0.515625 -3.117188 0.515625 -3.890625 C 0.515625 -4.671875 0.664062 -5.367188 0.96875 -5.984375 C 1.28125 -6.609375 1.707031 -7.09375 2.25 -7.4375 C 2.789062 -7.78125 3.390625 -7.953125 4.046875 -7.953125 C 4.515625 -7.953125 4.953125 -7.863281 5.359375 -7.6875 C 5.765625 -7.519531 6.109375 -7.304688 6.390625 -7.046875 L 6.390625 -9.90625 C 6.390625 -10.15625 6.472656 -10.363281 6.640625 -10.53125 C 6.804688 -10.707031 7.015625 -10.796875 7.265625 -10.796875 Z M 4.3125 -1.453125 C 4.945312 -1.453125 5.460938 -1.679688 5.859375 -2.140625 C 6.265625 -2.609375 6.46875 -3.191406 6.46875 -3.890625 C 6.46875 -4.597656 6.265625 -5.179688 5.859375 -5.640625 C 5.460938 -6.109375 4.945312 -6.34375 4.3125 -6.34375 C 3.695312 -6.34375 3.1875 -6.109375 2.78125 -5.640625 C 2.382812 -5.179688 2.1875 -4.597656 2.1875 -3.890625 C 2.1875 -3.191406 2.382812 -2.609375 2.78125 -2.140625 C 3.175781 -1.679688 3.6875 -1.453125 4.3125 -1.453125 Z M 4.3125 -1.453125 "/></g></g></g><g fill="#d62323" fill-opacity="1"><g transform="translate(179.000011, 276.375217)"><g><path d="M 7.21875 -5.65625 C 7.738281 -5.457031 8.160156 -5.144531 8.484375 -4.71875 C 8.804688 -4.300781 8.96875 -3.765625 8.96875 -3.109375 C 8.96875 -1.953125 8.632812 -1.144531 7.96875 -0.6875 C 7.3125 -0.226562 6.53125 0 5.625 0 L 1.984375 0 C 1.734375 0 1.519531 -0.0820312 1.34375 -0.25 C 1.175781 -0.425781 1.09375 -0.640625 1.09375 -0.890625 L 1.09375 -9.328125 C 1.09375 -9.578125 1.175781 -9.785156 1.34375 -9.953125 C 1.519531 -10.128906 1.734375 -10.21875 1.984375 -10.21875 L 5.65625 -10.21875 C 7.507812 -10.21875 8.4375 -9.351562 8.4375 -7.625 C 8.4375 -7.1875 8.332031 -6.796875 8.125 -6.453125 C 7.914062 -6.117188 7.613281 -5.851562 7.21875 -5.65625 Z M 6.53125 -7.296875 C 6.53125 -7.691406 6.429688 -7.988281 6.234375 -8.1875 C 6.035156 -8.394531 5.757812 -8.5 5.40625 -8.5 L 2.984375 -8.5 L 2.984375 -6.21875 L 5.4375 -6.21875 C 5.726562 -6.21875 5.984375 -6.3125 6.203125 -6.5 C 6.421875 -6.695312 6.53125 -6.960938 6.53125 -7.296875 Z M 5.625 -1.671875 C 6.070312 -1.671875 6.425781 -1.789062 6.6875 -2.03125 C 6.945312 -2.28125 7.078125 -2.640625 7.078125 -3.109375 C 7.078125 -3.679688 6.925781 -4.054688 6.625 -4.234375 C 6.320312 -4.410156 5.953125 -4.5 5.515625 -4.5 L 2.984375 -4.5 L 2.984375 -1.671875 Z M 5.625 -1.671875 "/></g></g></g><g fill="#d62323" fill-opacity="1"><g transform="translate(189.432038, 276.375217)"><g><path d="M 7.265625 -7.953125 C 7.515625 -7.953125 7.722656 -7.867188 7.890625 -7.703125 C 8.054688 -7.535156 8.140625 -7.320312 8.140625 -7.0625 L 8.140625 -0.890625 C 8.140625 -0.640625 8.054688 -0.425781 7.890625 -0.25 C 7.722656 -0.0820312 7.515625 0 7.265625 0 C 7.015625 0 6.804688 -0.0820312 6.640625 -0.25 C 6.484375 -0.414062 6.398438 -0.625 6.390625 -0.875 C 6.148438 -0.59375 5.820312 -0.351562 5.40625 -0.15625 C 4.988281 0.0390625 4.550781 0.140625 4.09375 0.140625 C 3.425781 0.140625 2.816406 -0.03125 2.265625 -0.375 C 1.722656 -0.71875 1.296875 -1.195312 0.984375 -1.8125 C 0.671875 -2.425781 0.515625 -3.117188 0.515625 -3.890625 C 0.515625 -4.671875 0.664062 -5.367188 0.96875 -5.984375 C 1.28125 -6.609375 1.707031 -7.09375 2.25 -7.4375 C 2.789062 -7.78125 3.390625 -7.953125 4.046875 -7.953125 C 4.515625 -7.953125 4.953125 -7.863281 5.359375 -7.6875 C 5.765625 -7.519531 6.109375 -7.304688 6.390625 -7.046875 L 6.390625 -7.0625 C 6.390625 -7.3125 6.472656 -7.519531 6.640625 -7.6875 C 6.804688 -7.863281 7.015625 -7.953125 7.265625 -7.953125 Z M 4.3125 -1.453125 C 4.945312 -1.453125 5.460938 -1.679688 5.859375 -2.140625 C 6.265625 -2.609375 6.46875 -3.191406 6.46875 -3.890625 C 6.46875 -4.597656 6.265625 -5.179688 5.859375 -5.640625 C 5.460938 -6.109375 4.945312 -6.34375 4.3125 -6.34375 C 3.695312 -6.34375 3.1875 -6.109375 2.78125 -5.640625 C 2.382812 -5.179688 2.1875 -4.597656 2.1875 -3.890625 C 2.1875 -3.191406 2.382812 -2.609375 2.78125 -2.140625 C 3.175781 -1.679688 3.6875 -1.453125 4.3125 -1.453125 Z M 4.3125 -1.453125 "/></g></g></g><g fill="#d62323" fill-opacity="1"><g transform="translate(199.397192, 276.375217)"><g><path d="M 5.125 -7.953125 C 6.113281 -7.953125 6.796875 -7.65625 7.171875 -7.0625 C 7.554688 -6.476562 7.75 -5.664062 7.75 -4.625 L 7.75 -0.890625 C 7.75 -0.640625 7.664062 -0.425781 7.5 -0.25 C 7.332031 -0.0820312 7.125 0 6.875 0 C 6.625 0 6.414062 -0.0820312 6.25 -0.25 C 6.082031 -0.425781 6 -0.640625 6 -0.890625 L 6 -4.625 C 6 -5.15625 5.882812 -5.570312 5.65625 -5.875 C 5.4375 -6.1875 5.054688 -6.34375 4.515625 -6.34375 C 3.941406 -6.34375 3.492188 -6.179688 3.171875 -5.859375 C 2.859375 -5.535156 2.703125 -5.125 2.703125 -4.625 L 2.703125 -0.890625 C 2.703125 -0.640625 2.617188 -0.425781 2.453125 -0.25 C 2.285156 -0.0820312 2.078125 0 1.828125 0 C 1.566406 0 1.351562 -0.0820312 1.1875 -0.25 C 1.03125 -0.425781 0.953125 -0.640625 0.953125 -0.890625 L 0.953125 -6.921875 C 0.953125 -7.171875 1.03125 -7.378906 1.1875 -7.546875 C 1.351562 -7.722656 1.566406 -7.8125 1.828125 -7.8125 C 2.078125 -7.8125 2.285156 -7.722656 2.453125 -7.546875 C 2.617188 -7.378906 2.703125 -7.171875 2.703125 -6.921875 L 2.703125 -6.671875 C 2.960938 -7.015625 3.300781 -7.3125 3.71875 -7.5625 C 4.144531 -7.820312 4.613281 -7.953125 5.125 -7.953125 Z M 5.125 -7.953125 "/></g></g></g><g fill="#d62323" fill-opacity="1"><g transform="translate(208.968429, 276.375217)"><g><path d="M 7.4375 -1.53125 C 7.625 -1.332031 7.71875 -1.113281 7.71875 -0.875 C 7.71875 -0.632812 7.625 -0.429688 7.4375 -0.265625 C 7.25 -0.0976562 7.046875 -0.015625 6.828125 -0.015625 C 6.578125 -0.015625 6.363281 -0.113281 6.1875 -0.3125 L 3.5625 -3.078125 L 2.84375 -2.421875 L 2.84375 -0.890625 C 2.84375 -0.640625 2.757812 -0.425781 2.59375 -0.25 C 2.425781 -0.0820312 2.21875 0 1.96875 0 C 1.71875 0 1.507812 -0.0820312 1.34375 -0.25 C 1.175781 -0.425781 1.09375 -0.640625 1.09375 -0.890625 L 1.09375 -9.90625 C 1.09375 -10.15625 1.175781 -10.363281 1.34375 -10.53125 C 1.507812 -10.707031 1.71875 -10.796875 1.96875 -10.796875 C 2.21875 -10.796875 2.425781 -10.707031 2.59375 -10.53125 C 2.757812 -10.363281 2.84375 -10.15625 2.84375 -9.90625 L 2.84375 -4.515625 L 5.96875 -7.53125 C 6.15625 -7.71875 6.367188 -7.8125 6.609375 -7.8125 C 6.828125 -7.8125 7.019531 -7.71875 7.1875 -7.53125 C 7.351562 -7.351562 7.4375 -7.171875 7.4375 -6.984375 C 7.4375 -6.753906 7.320312 -6.535156 7.09375 -6.328125 L 4.890625 -4.3125 Z M 7.4375 -1.53125 "/></g></g></g><g fill="#2a2929" fill-opacity="1"><g transform="translate(218.155343, 276.375217)"><g/></g></g><g fill="#2a2929" fill-opacity="1"><g transform="translate(223.1162, 276.375217)"><g><path d="M 12.578125 -10.265625 C 12.816406 -10.265625 13.035156 -10.171875 13.234375 -9.984375 C 13.429688 -9.804688 13.53125 -9.582031 13.53125 -9.3125 C 13.53125 -9.21875 13.515625 -9.117188 13.484375 -9.015625 L 10.609375 -0.546875 C 10.546875 -0.390625 10.441406 -0.257812 10.296875 -0.15625 C 10.148438 -0.0625 9.992188 -0.0078125 9.828125 0 C 9.648438 0 9.484375 -0.046875 9.328125 -0.140625 C 9.171875 -0.242188 9.046875 -0.382812 8.953125 -0.5625 L 6.890625 -5.28125 L 4.796875 -0.5625 C 4.710938 -0.382812 4.59375 -0.242188 4.4375 -0.140625 C 4.28125 -0.046875 4.113281 0 3.9375 0 C 3.757812 -0.0078125 3.597656 -0.0625 3.453125 -0.15625 C 3.304688 -0.257812 3.207031 -0.390625 3.15625 -0.546875 L 0.28125 -9.015625 C 0.25 -9.117188 0.234375 -9.21875 0.234375 -9.3125 C 0.234375 -9.582031 0.332031 -9.804688 0.53125 -9.984375 C 0.726562 -10.171875 0.953125 -10.265625 1.203125 -10.265625 C 1.390625 -10.265625 1.5625 -10.210938 1.71875 -10.109375 C 1.875 -10.003906 1.984375 -9.863281 2.046875 -9.6875 L 4.21875 -3.09375 L 6.109375 -7.640625 C 6.191406 -7.816406 6.304688 -7.957031 6.453125 -8.0625 C 6.597656 -8.164062 6.765625 -8.210938 6.953125 -8.203125 C 7.128906 -8.210938 7.285156 -8.164062 7.421875 -8.0625 C 7.566406 -7.957031 7.679688 -7.816406 7.765625 -7.640625 L 9.5625 -3.140625 L 11.71875 -9.6875 C 11.78125 -9.863281 11.890625 -10.003906 12.046875 -10.109375 C 12.203125 -10.210938 12.378906 -10.265625 12.578125 -10.265625 Z M 12.578125 -10.265625 "/></g></g></g><g fill="#2a2929" fill-opacity="1"><g transform="translate(237.750085, 276.375217)"><g><path d="M 7.953125 -4.09375 C 7.941406 -3.851562 7.847656 -3.660156 7.671875 -3.515625 C 7.492188 -3.367188 7.289062 -3.296875 7.0625 -3.296875 L 2.25 -3.296875 C 2.363281 -2.722656 2.628906 -2.269531 3.046875 -1.9375 C 3.460938 -1.613281 3.9375 -1.453125 4.46875 -1.453125 C 4.863281 -1.453125 5.171875 -1.488281 5.390625 -1.5625 C 5.617188 -1.632812 5.796875 -1.710938 5.921875 -1.796875 C 6.054688 -1.878906 6.148438 -1.9375 6.203125 -1.96875 C 6.378906 -2.050781 6.546875 -2.09375 6.703125 -2.09375 C 6.898438 -2.09375 7.070312 -2.019531 7.21875 -1.875 C 7.363281 -1.726562 7.4375 -1.5625 7.4375 -1.375 C 7.4375 -1.113281 7.300781 -0.875 7.03125 -0.65625 C 6.757812 -0.4375 6.394531 -0.25 5.9375 -0.09375 C 5.476562 0.0625 5.015625 0.140625 4.546875 0.140625 C 3.734375 0.140625 3.019531 -0.0234375 2.40625 -0.359375 C 1.800781 -0.703125 1.332031 -1.171875 1 -1.765625 C 0.675781 -2.367188 0.515625 -3.046875 0.515625 -3.796875 C 0.515625 -4.628906 0.6875 -5.363281 1.03125 -6 C 1.382812 -6.632812 1.847656 -7.117188 2.421875 -7.453125 C 2.992188 -7.785156 3.609375 -7.953125 4.265625 -7.953125 C 4.898438 -7.953125 5.503906 -7.773438 6.078125 -7.421875 C 6.648438 -7.078125 7.101562 -6.609375 7.4375 -6.015625 C 7.78125 -5.421875 7.953125 -4.78125 7.953125 -4.09375 Z M 4.265625 -6.34375 C 3.128906 -6.34375 2.460938 -5.8125 2.265625 -4.75 L 6.078125 -4.75 L 6.078125 -4.859375 C 6.046875 -5.265625 5.847656 -5.613281 5.484375 -5.90625 C 5.128906 -6.195312 4.722656 -6.34375 4.265625 -6.34375 Z M 4.265625 -6.34375 "/></g></g></g><g fill="#2a2929" fill-opacity="1"><g transform="translate(247.087882, 276.375217)"><g><path d="M 4.984375 -7.953125 C 5.660156 -7.953125 6.269531 -7.78125 6.8125 -7.4375 C 7.351562 -7.09375 7.78125 -6.613281 8.09375 -6 C 8.414062 -5.382812 8.578125 -4.6875 8.578125 -3.90625 C 8.578125 -3.132812 8.421875 -2.4375 8.109375 -1.8125 C 7.796875 -1.195312 7.367188 -0.71875 6.828125 -0.375 C 6.296875 -0.03125 5.703125 0.140625 5.046875 0.140625 C 4.578125 0.140625 4.132812 0.046875 3.71875 -0.140625 C 3.3125 -0.328125 2.972656 -0.554688 2.703125 -0.828125 L 2.703125 -0.75 C 2.703125 -0.488281 2.617188 -0.273438 2.453125 -0.109375 C 2.285156 0.0546875 2.078125 0.140625 1.828125 0.140625 C 1.566406 0.140625 1.351562 0.0625 1.1875 -0.09375 C 1.03125 -0.257812 0.953125 -0.476562 0.953125 -0.75 L 0.953125 -9.90625 C 0.953125 -10.15625 1.03125 -10.363281 1.1875 -10.53125 C 1.351562 -10.707031 1.566406 -10.796875 1.828125 -10.796875 C 2.078125 -10.796875 2.285156 -10.707031 2.453125 -10.53125 C 2.617188 -10.363281 2.703125 -10.15625 2.703125 -9.90625 L 2.703125 -6.859375 C 2.929688 -7.148438 3.253906 -7.40625 3.671875 -7.625 C 4.097656 -7.84375 4.535156 -7.953125 4.984375 -7.953125 Z M 4.765625 -1.453125 C 5.390625 -1.453125 5.898438 -1.6875 6.296875 -2.15625 C 6.703125 -2.625 6.90625 -3.207031 6.90625 -3.90625 C 6.90625 -4.613281 6.707031 -5.195312 6.3125 -5.65625 C 5.914062 -6.113281 5.398438 -6.34375 4.765625 -6.34375 C 4.140625 -6.34375 3.625 -6.113281 3.21875 -5.65625 C 2.820312 -5.195312 2.625 -4.613281 2.625 -3.90625 C 2.625 -3.207031 2.820312 -2.625 3.21875 -2.15625 C 3.625 -1.6875 4.140625 -1.453125 4.765625 -1.453125 Z M 4.765625 -1.453125 "/></g></g></g><g fill="#2a2929" fill-opacity="1"><g transform="translate(257.053036, 276.375217)"><g><path d="M 0.5 -1.21875 C 0.40625 -1.332031 0.359375 -1.476562 0.359375 -1.65625 C 0.359375 -1.90625 0.488281 -2.117188 0.75 -2.296875 C 0.882812 -2.378906 1.023438 -2.421875 1.171875 -2.421875 C 1.367188 -2.421875 1.5625 -2.328125 1.75 -2.140625 C 2.039062 -1.835938 2.34375 -1.613281 2.65625 -1.46875 C 2.976562 -1.320312 3.363281 -1.25 3.8125 -1.25 C 4.570312 -1.28125 4.953125 -1.566406 4.953125 -2.109375 C 4.953125 -2.398438 4.820312 -2.617188 4.5625 -2.765625 C 4.300781 -2.910156 3.898438 -3.054688 3.359375 -3.203125 C 2.796875 -3.347656 2.332031 -3.5 1.96875 -3.65625 C 1.613281 -3.8125 1.304688 -4.046875 1.046875 -4.359375 C 0.796875 -4.679688 0.671875 -5.109375 0.671875 -5.640625 C 0.671875 -6.109375 0.800781 -6.515625 1.0625 -6.859375 C 1.332031 -7.210938 1.679688 -7.484375 2.109375 -7.671875 C 2.546875 -7.859375 3.007812 -7.953125 3.5 -7.953125 C 4 -7.953125 4.492188 -7.859375 4.984375 -7.671875 C 5.484375 -7.492188 5.875 -7.222656 6.15625 -6.859375 C 6.28125 -6.703125 6.34375 -6.523438 6.34375 -6.328125 C 6.34375 -6.109375 6.253906 -5.925781 6.078125 -5.78125 C 5.929688 -5.675781 5.773438 -5.625 5.609375 -5.625 C 5.390625 -5.625 5.210938 -5.691406 5.078125 -5.828125 C 4.898438 -6.035156 4.671875 -6.203125 4.390625 -6.328125 C 4.117188 -6.460938 3.804688 -6.53125 3.453125 -6.53125 C 2.710938 -6.53125 2.34375 -6.257812 2.34375 -5.71875 C 2.34375 -5.507812 2.410156 -5.335938 2.546875 -5.203125 C 2.691406 -5.066406 2.867188 -4.960938 3.078125 -4.890625 C 3.285156 -4.816406 3.578125 -4.726562 3.953125 -4.625 C 4.484375 -4.476562 4.921875 -4.328125 5.265625 -4.171875 C 5.617188 -4.015625 5.914062 -3.773438 6.15625 -3.453125 C 6.40625 -3.140625 6.53125 -2.71875 6.53125 -2.1875 C 6.53125 -1.707031 6.382812 -1.289062 6.09375 -0.9375 C 5.8125 -0.582031 5.445312 -0.3125 5 -0.125 C 4.5625 0.0507812 4.113281 0.140625 3.65625 0.140625 C 3.007812 0.140625 2.40625 0.0351562 1.84375 -0.171875 C 1.289062 -0.390625 0.84375 -0.738281 0.5 -1.21875 Z M 0.5 -1.21875 "/></g></g></g><g fill="#2a2929" fill-opacity="1"><g transform="translate(264.961035, 276.375217)"><g><path d="M 2.59375 -0.890625 C 2.59375 -0.640625 2.507812 -0.425781 2.34375 -0.25 C 2.175781 -0.0820312 1.96875 0 1.71875 0 C 1.46875 0 1.257812 -0.0820312 1.09375 -0.25 C 0.925781 -0.425781 0.84375 -0.640625 0.84375 -0.890625 L 0.84375 -6.921875 C 0.84375 -7.171875 0.925781 -7.378906 1.09375 -7.546875 C 1.257812 -7.722656 1.46875 -7.8125 1.71875 -7.8125 C 1.96875 -7.8125 2.175781 -7.722656 2.34375 -7.546875 C 2.507812 -7.378906 2.59375 -7.171875 2.59375 -6.921875 Z M 1.71875 -8.75 C 1.382812 -8.75 1.148438 -8.800781 1.015625 -8.90625 C 0.878906 -9.019531 0.8125 -9.210938 0.8125 -9.484375 L 0.8125 -9.765625 C 0.8125 -10.035156 0.882812 -10.222656 1.03125 -10.328125 C 1.175781 -10.441406 1.40625 -10.5 1.71875 -10.5 C 2.0625 -10.5 2.300781 -10.441406 2.4375 -10.328125 C 2.570312 -10.222656 2.640625 -10.035156 2.640625 -9.765625 L 2.640625 -9.484375 C 2.640625 -9.203125 2.566406 -9.007812 2.421875 -8.90625 C 2.285156 -8.800781 2.050781 -8.75 1.71875 -8.75 Z M 1.71875 -8.75 "/></g></g></g><g fill="#2a2929" fill-opacity="1"><g transform="translate(269.279949, 276.375217)"><g><path d="M 4.71875 -1.65625 C 4.851562 -1.65625 4.972656 -1.585938 5.078125 -1.453125 C 5.191406 -1.316406 5.25 -1.144531 5.25 -0.9375 C 5.25 -0.675781 5.101562 -0.453125 4.8125 -0.265625 C 4.53125 -0.0859375 4.210938 0 3.859375 0 C 3.253906 0 2.742188 -0.128906 2.328125 -0.390625 C 1.910156 -0.648438 1.703125 -1.195312 1.703125 -2.03125 L 1.703125 -6.0625 L 1.03125 -6.0625 C 0.800781 -6.0625 0.609375 -6.140625 0.453125 -6.296875 C 0.296875 -6.453125 0.21875 -6.644531 0.21875 -6.875 C 0.21875 -7.09375 0.296875 -7.273438 0.453125 -7.421875 C 0.609375 -7.578125 0.800781 -7.65625 1.03125 -7.65625 L 1.703125 -7.65625 L 1.703125 -8.59375 C 1.703125 -8.84375 1.785156 -9.050781 1.953125 -9.21875 C 2.128906 -9.394531 2.34375 -9.484375 2.59375 -9.484375 C 2.84375 -9.484375 3.046875 -9.394531 3.203125 -9.21875 C 3.367188 -9.050781 3.453125 -8.84375 3.453125 -8.59375 L 3.453125 -7.65625 L 4.5 -7.65625 C 4.726562 -7.65625 4.921875 -7.578125 5.078125 -7.421875 C 5.234375 -7.265625 5.3125 -7.070312 5.3125 -6.84375 C 5.3125 -6.625 5.234375 -6.4375 5.078125 -6.28125 C 4.921875 -6.132812 4.726562 -6.0625 4.5 -6.0625 L 3.453125 -6.0625 L 3.453125 -2.09375 C 3.453125 -1.894531 3.503906 -1.75 3.609375 -1.65625 C 3.722656 -1.5625 3.875 -1.515625 4.0625 -1.515625 C 4.132812 -1.515625 4.238281 -1.535156 4.375 -1.578125 C 4.488281 -1.628906 4.601562 -1.65625 4.71875 -1.65625 Z M 4.71875 -1.65625 "/></g></g></g><g fill="#2a2929" fill-opacity="1"><g transform="translate(276.122892, 276.375217)"><g><path d="M 7.953125 -4.09375 C 7.941406 -3.851562 7.847656 -3.660156 7.671875 -3.515625 C 7.492188 -3.367188 7.289062 -3.296875 7.0625 -3.296875 L 2.25 -3.296875 C 2.363281 -2.722656 2.628906 -2.269531 3.046875 -1.9375 C 3.460938 -1.613281 3.9375 -1.453125 4.46875 -1.453125 C 4.863281 -1.453125 5.171875 -1.488281 5.390625 -1.5625 C 5.617188 -1.632812 5.796875 -1.710938 5.921875 -1.796875 C 6.054688 -1.878906 6.148438 -1.9375 6.203125 -1.96875 C 6.378906 -2.050781 6.546875 -2.09375 6.703125 -2.09375 C 6.898438 -2.09375 7.070312 -2.019531 7.21875 -1.875 C 7.363281 -1.726562 7.4375 -1.5625 7.4375 -1.375 C 7.4375 -1.113281 7.300781 -0.875 7.03125 -0.65625 C 6.757812 -0.4375 6.394531 -0.25 5.9375 -0.09375 C 5.476562 0.0625 5.015625 0.140625 4.546875 0.140625 C 3.734375 0.140625 3.019531 -0.0234375 2.40625 -0.359375 C 1.800781 -0.703125 1.332031 -1.171875 1 -1.765625 C 0.675781 -2.367188 0.515625 -3.046875 0.515625 -3.796875 C 0.515625 -4.628906 0.6875 -5.363281 1.03125 -6 C 1.382812 -6.632812 1.847656 -7.117188 2.421875 -7.453125 C 2.992188 -7.785156 3.609375 -7.953125 4.265625 -7.953125 C 4.898438 -7.953125 5.503906 -7.773438 6.078125 -7.421875 C 6.648438 -7.078125 7.101562 -6.609375 7.4375 -6.015625 C 7.78125 -5.421875 7.953125 -4.78125 7.953125 -4.09375 Z M 4.265625 -6.34375 C 3.128906 -6.34375 2.460938 -5.8125 2.265625 -4.75 L 6.078125 -4.75 L 6.078125 -4.859375 C 6.046875 -5.265625 5.847656 -5.613281 5.484375 -5.90625 C 5.128906 -6.195312 4.722656 -6.34375 4.265625 -6.34375 Z M 4.265625 -6.34375 "/></g></g></g><g fill="#2a2929" fill-opacity="1"><g transform="translate(53.104012, 248.196766)"><g><path d="M 20.203125 -34.203125 C 21.796875 -33.535156 23.25 -32.675781 24.5625 -31.625 C 25.882812 -30.570312 26.953125 -29.351562 27.765625 -27.96875 C 28.585938 -26.59375 29.054688 -25.101562 29.171875 -23.5 C 29.285156 -21.894531 28.945312 -20.226562 28.15625 -18.5 C 27.113281 -16.394531 25.675781 -14.71875 23.84375 -13.46875 C 22.007812 -12.21875 19.984375 -11.414062 17.765625 -11.0625 C 15.554688 -10.71875 13.367188 -10.796875 11.203125 -11.296875 C 11.003906 -9.398438 10.800781 -7.5 10.59375 -5.59375 C 10.394531 -3.695312 10.195312 -1.800781 10 0.09375 C 9.894531 1.03125 9.566406 1.789062 9.015625 2.375 C 8.472656 2.957031 7.816406 3.335938 7.046875 3.515625 C 6.285156 3.703125 5.535156 3.703125 4.796875 3.515625 C 4.066406 3.335938 3.484375 2.960938 3.046875 2.390625 C 2.617188 1.828125 2.4375 1.0625 2.5 0.09375 C 2.96875 -4.40625 3.414062 -8.894531 3.84375 -13.375 C 4.28125 -17.851562 4.75 -22.328125 5.25 -26.796875 C 5.476562 -28.566406 5.957031 -30.160156 6.6875 -31.578125 C 7.425781 -32.992188 8.679688 -34.035156 10.453125 -34.703125 C 12.015625 -35.296875 13.65625 -35.507812 15.375 -35.34375 C 17.09375 -35.175781 18.703125 -34.796875 20.203125 -34.203125 Z M 11.953125 -18.84375 C 12.785156 -18.613281 13.734375 -18.484375 14.796875 -18.453125 C 15.867188 -18.421875 16.921875 -18.535156 17.953125 -18.796875 C 18.984375 -19.066406 19.847656 -19.523438 20.546875 -20.171875 C 21.242188 -20.828125 21.644531 -21.71875 21.75 -22.84375 C 21.8125 -23.582031 21.5625 -24.289062 21 -24.96875 C 20.4375 -25.65625 19.703125 -26.25 18.796875 -26.75 C 17.898438 -27.25 17 -27.609375 16.09375 -27.828125 C 15.195312 -28.046875 14.429688 -28.070312 13.796875 -27.90625 C 13.429688 -27.769531 13.207031 -27.679688 13.125 -27.640625 C 13.039062 -27.609375 13 -27.539062 13 -27.4375 C 13 -27.34375 12.914062 -27.128906 12.75 -26.796875 C 12.550781 -26.367188 12.453125 -25.785156 12.453125 -25.046875 C 12.453125 -24.316406 12.4375 -23.6875 12.40625 -23.15625 C 12.332031 -22.414062 12.253906 -21.695312 12.171875 -21 C 12.085938 -20.300781 12.015625 -19.582031 11.953125 -18.84375 Z M 11.953125 -18.84375 "/></g></g></g><g fill="#2a2929" fill-opacity="1"><g transform="translate(87.799109, 248.196766)"><g><path d="M 25.90625 -21.953125 C 26 -18.617188 26.078125 -15.285156 26.140625 -11.953125 C 26.210938 -8.617188 26.300781 -5.285156 26.40625 -1.953125 C 26.4375 -0.984375 26.203125 -0.207031 25.703125 0.375 C 25.203125 0.957031 24.582031 1.335938 23.84375 1.515625 C 23.113281 1.703125 22.375 1.695312 21.625 1.5 C 20.875 1.300781 20.238281 0.914062 19.71875 0.34375 C 19.207031 -0.21875 18.9375 -0.984375 18.90625 -1.953125 C 18.863281 -2.953125 18.832031 -3.953125 18.8125 -4.953125 C 18.800781 -5.953125 18.78125 -6.953125 18.75 -7.953125 L 11.25 -8.203125 C 10.976562 -6.960938 10.726562 -5.707031 10.5 -4.4375 C 10.269531 -3.175781 10.035156 -1.914062 9.796875 -0.65625 C 9.628906 0.28125 9.253906 0.960938 8.671875 1.390625 C 8.085938 1.828125 7.410156 2.046875 6.640625 2.046875 C 5.878906 2.046875 5.15625 1.84375 4.46875 1.4375 C 3.789062 1.039062 3.257812 0.492188 2.875 -0.203125 C 2.488281 -0.898438 2.378906 -1.71875 2.546875 -2.65625 C 3.148438 -5.914062 3.828125 -9.144531 4.578125 -12.34375 C 5.328125 -15.550781 6.382812 -18.671875 7.75 -21.703125 C 8.414062 -23.203125 9.265625 -24.816406 10.296875 -26.546875 C 11.328125 -28.285156 12.5 -29.878906 13.8125 -31.328125 C 15.132812 -32.773438 16.597656 -33.847656 18.203125 -34.546875 C 19.703125 -35.179688 20.914062 -35.296875 21.84375 -34.890625 C 22.78125 -34.492188 23.515625 -33.769531 24.046875 -32.71875 C 24.578125 -31.675781 24.96875 -30.488281 25.21875 -29.15625 C 25.46875 -27.820312 25.632812 -26.503906 25.71875 -25.203125 C 25.800781 -23.898438 25.863281 -22.816406 25.90625 -21.953125 Z M 13.59375 -16.453125 C 13.5625 -16.316406 13.519531 -16.179688 13.46875 -16.046875 C 13.425781 -15.910156 13.367188 -15.78125 13.296875 -15.65625 C 14.203125 -15.613281 15.085938 -15.578125 15.953125 -15.546875 C 16.816406 -15.515625 17.679688 -15.484375 18.546875 -15.453125 C 18.515625 -16.515625 18.488281 -17.585938 18.46875 -18.671875 C 18.457031 -19.753906 18.4375 -20.847656 18.40625 -21.953125 C 18.363281 -22.378906 18.34375 -22.832031 18.34375 -23.3125 C 18.34375 -23.800781 18.34375 -24.296875 18.34375 -24.796875 C 17.78125 -24.128906 17.300781 -23.476562 16.90625 -22.84375 C 16.238281 -21.84375 15.628906 -20.8125 15.078125 -19.75 C 14.523438 -18.6875 14.03125 -17.585938 13.59375 -16.453125 Z M 13.59375 -16.453125 "/></g></g></g><g fill="#2a2929" fill-opacity="1"><g transform="translate(119.694637, 248.196766)"><g><path d="M 36.953125 -27.453125 C 37.546875 -22.421875 37.34375 -17.382812 36.34375 -12.34375 C 36.050781 -10.976562 35.703125 -9.570312 35.296875 -8.125 C 34.898438 -6.675781 34.367188 -5.289062 33.703125 -3.96875 C 33.035156 -2.65625 32.1875 -1.484375 31.15625 -0.453125 C 30.113281 0.546875 28.9375 1.28125 27.625 1.75 C 26.3125 2.21875 24.96875 2.375 23.59375 2.21875 C 22.226562 2.070312 20.945312 1.582031 19.75 0.75 C 19.082031 0.28125 18.5 -0.269531 18 -0.90625 C 16.863281 -0.03125 15.617188 0.550781 14.265625 0.84375 C 12.921875 1.144531 11.570312 1.0625 10.21875 0.59375 C 8.875 0.132812 7.617188 -0.8125 6.453125 -2.25 C 5.515625 -3.382812 4.796875 -4.675781 4.296875 -6.125 C 3.796875 -7.570312 3.4375 -9.0625 3.21875 -10.59375 C 3.007812 -12.132812 2.835938 -13.617188 2.703125 -15.046875 C 2.460938 -17.546875 2.425781 -20.046875 2.59375 -22.546875 C 2.757812 -25.046875 3.078125 -27.546875 3.546875 -30.046875 C 3.710938 -30.984375 4.085938 -31.664062 4.671875 -32.09375 C 5.253906 -32.53125 5.925781 -32.738281 6.6875 -32.71875 C 7.457031 -32.707031 8.175781 -32.507812 8.84375 -32.125 C 9.507812 -31.738281 10.035156 -31.195312 10.421875 -30.5 C 10.804688 -29.800781 10.914062 -28.984375 10.75 -28.046875 C 10.28125 -25.484375 10.019531 -22.898438 9.96875 -20.296875 C 9.925781 -17.703125 10.117188 -15.117188 10.546875 -12.546875 C 10.617188 -12.117188 10.71875 -11.460938 10.84375 -10.578125 C 10.976562 -9.691406 11.1875 -8.859375 11.46875 -8.078125 C 11.757812 -7.296875 12.171875 -6.800781 12.703125 -6.59375 C 13.203125 -6.425781 13.609375 -6.484375 13.921875 -6.765625 C 14.242188 -7.054688 14.488281 -7.457031 14.65625 -7.96875 C 14.820312 -8.488281 14.9375 -9.003906 15 -9.515625 C 15.0625 -10.035156 15.078125 -10.445312 15.046875 -10.75 C 14.984375 -11.71875 15.191406 -12.492188 15.671875 -13.078125 C 16.160156 -13.660156 16.757812 -14.039062 17.46875 -14.21875 C 18.1875 -14.40625 18.921875 -14.398438 19.671875 -14.203125 C 20.421875 -14.003906 21.070312 -13.613281 21.625 -13.03125 C 22.175781 -12.445312 22.484375 -11.6875 22.546875 -10.75 C 22.546875 -10.382812 22.570312 -9.867188 22.625 -9.203125 C 22.675781 -8.535156 22.773438 -7.875 22.921875 -7.21875 C 23.078125 -6.570312 23.328125 -6.054688 23.671875 -5.671875 C 24.023438 -5.285156 24.5 -5.160156 25.09375 -5.296875 C 25.757812 -5.492188 26.300781 -5.941406 26.71875 -6.640625 C 27.132812 -7.347656 27.457031 -8.117188 27.6875 -8.953125 C 27.925781 -9.785156 28.128906 -10.46875 28.296875 -11 C 29.066406 -13.695312 29.535156 -16.421875 29.703125 -19.171875 C 29.867188 -21.921875 29.785156 -24.679688 29.453125 -27.453125 C 29.347656 -28.421875 29.507812 -29.1875 29.9375 -29.75 C 30.375 -30.3125 30.953125 -30.6875 31.671875 -30.875 C 32.390625 -31.0625 33.128906 -31.0625 33.890625 -30.875 C 34.660156 -30.6875 35.335938 -30.3125 35.921875 -29.75 C 36.503906 -29.1875 36.847656 -28.421875 36.953125 -27.453125 Z M 36.953125 -27.453125 "/></g></g></g><g fill="#2a2929" fill-opacity="1"><g transform="translate(162.488476, 248.196766)"><g><path d="M 18.65625 -21.703125 C 20.519531 -20.429688 21.992188 -18.769531 23.078125 -16.71875 C 24.160156 -14.675781 24.582031 -12.519531 24.34375 -10.25 C 24.113281 -8.25 23.429688 -6.523438 22.296875 -5.078125 C 21.160156 -3.628906 19.769531 -2.507812 18.125 -1.71875 C 16.476562 -0.9375 14.726562 -0.503906 12.875 -0.421875 C 11.019531 -0.335938 9.242188 -0.644531 7.546875 -1.34375 C 5.847656 -2.050781 4.414062 -3.171875 3.25 -4.703125 C 2.644531 -5.503906 2.394531 -6.253906 2.5 -6.953125 C 2.601562 -7.648438 2.910156 -8.265625 3.421875 -8.796875 C 3.941406 -9.328125 4.582031 -9.703125 5.34375 -9.921875 C 6.113281 -10.140625 6.890625 -10.148438 7.671875 -9.953125 C 8.453125 -9.753906 9.128906 -9.269531 9.703125 -8.5 C 9.960938 -8.132812 10.457031 -7.925781 11.1875 -7.875 C 11.925781 -7.820312 12.660156 -7.851562 13.390625 -7.96875 C 14.128906 -8.09375 14.648438 -8.21875 14.953125 -8.34375 C 15.648438 -8.675781 16.171875 -9.164062 16.515625 -9.8125 C 16.867188 -10.46875 17 -11.179688 16.90625 -11.953125 C 16.800781 -12.878906 16.460938 -13.648438 15.890625 -14.265625 C 15.328125 -14.890625 14.65625 -15.414062 13.875 -15.84375 C 13.09375 -16.28125 12.300781 -16.707031 11.5 -17.125 C 10.695312 -17.539062 10 -18 9.40625 -18.5 C 7.738281 -19.96875 6.71875 -21.566406 6.34375 -23.296875 C 5.976562 -25.035156 6.101562 -26.753906 6.71875 -28.453125 C 7.34375 -30.148438 8.300781 -31.695312 9.59375 -33.09375 C 10.894531 -34.5 12.378906 -35.601562 14.046875 -36.40625 C 14.953125 -36.800781 15.785156 -36.90625 16.546875 -36.71875 C 17.316406 -36.539062 17.972656 -36.164062 18.515625 -35.59375 C 19.066406 -35.03125 19.441406 -34.378906 19.640625 -33.640625 C 19.847656 -32.910156 19.816406 -32.210938 19.546875 -31.546875 C 19.285156 -30.878906 18.71875 -30.332031 17.84375 -29.90625 C 17.28125 -29.632812 16.625 -29.265625 15.875 -28.796875 C 15.125 -28.328125 14.503906 -27.769531 14.015625 -27.125 C 13.535156 -26.476562 13.445312 -25.753906 13.75 -24.953125 C 13.914062 -24.421875 14.304688 -23.960938 14.921875 -23.578125 C 15.535156 -23.191406 16.191406 -22.847656 16.890625 -22.546875 C 17.597656 -22.242188 18.1875 -21.960938 18.65625 -21.703125 Z M 18.65625 -21.703125 "/></g></g></g><g fill="#2a2929" fill-opacity="1"><g transform="translate(192.384311, 248.196766)"><g><path d="M 4.75 -30.84375 C 4.851562 -31.78125 5.1875 -32.539062 5.75 -33.125 C 6.3125 -33.707031 6.976562 -34.085938 7.75 -34.265625 C 8.519531 -34.453125 9.269531 -34.453125 10 -34.265625 C 10.726562 -34.085938 11.3125 -33.710938 11.75 -33.140625 C 12.1875 -32.578125 12.351562 -31.8125 12.25 -30.84375 C 11.28125 -21.8125 10.53125 -12.765625 10 -3.703125 C 9.9375 -2.734375 9.632812 -1.960938 9.09375 -1.390625 C 8.5625 -0.828125 7.921875 -0.445312 7.171875 -0.25 C 6.421875 -0.0507812 5.675781 -0.0507812 4.9375 -0.25 C 4.207031 -0.445312 3.601562 -0.828125 3.125 -1.390625 C 2.644531 -1.960938 2.4375 -2.734375 2.5 -3.703125 C 3.03125 -12.765625 3.78125 -21.8125 4.75 -30.84375 Z M 4.75 -30.84375 "/></g></g></g><g fill="#2a2929" fill-opacity="1"><g transform="translate(210.182024, 248.196766)"><g><path d="M 22.796875 -34.40625 C 23.734375 -34.300781 24.484375 -33.957031 25.046875 -33.375 C 25.617188 -32.789062 26.003906 -32.113281 26.203125 -31.34375 C 26.398438 -30.582031 26.398438 -29.84375 26.203125 -29.125 C 26.003906 -28.40625 25.617188 -27.828125 25.046875 -27.390625 C 24.484375 -26.960938 23.734375 -26.816406 22.796875 -26.953125 C 21.234375 -27.148438 19.632812 -27.300781 18 -27.40625 C 17.769531 -23.738281 17.546875 -20.085938 17.328125 -16.453125 C 17.109375 -12.816406 16.882812 -9.179688 16.65625 -5.546875 C 16.613281 -4.578125 16.316406 -3.800781 15.765625 -3.21875 C 15.222656 -2.632812 14.578125 -2.25 13.828125 -2.0625 C 13.078125 -1.882812 12.332031 -1.882812 11.59375 -2.0625 C 10.863281 -2.25 10.265625 -2.632812 9.796875 -3.21875 C 9.328125 -3.800781 9.113281 -4.578125 9.15625 -5.546875 C 9.382812 -9.179688 9.609375 -12.832031 9.828125 -16.5 C 10.046875 -20.164062 10.269531 -23.816406 10.5 -27.453125 C 9 -27.421875 7.53125 -27.320312 6.09375 -27.15625 C 5.132812 -27.082031 4.363281 -27.257812 3.78125 -27.6875 C 3.195312 -28.125 2.8125 -28.707031 2.625 -29.4375 C 2.4375 -30.175781 2.441406 -30.925781 2.640625 -31.6875 C 2.847656 -32.457031 3.234375 -33.117188 3.796875 -33.671875 C 4.367188 -34.222656 5.132812 -34.550781 6.09375 -34.65625 C 11.664062 -35.21875 17.234375 -35.132812 22.796875 -34.40625 Z M 22.796875 -34.40625 "/></g></g></g><g fill="#2a2929" fill-opacity="1"><g transform="translate(242.027554, 248.196766)"><g><path d="M 4.75 -30.84375 C 4.851562 -31.78125 5.1875 -32.539062 5.75 -33.125 C 6.3125 -33.707031 6.976562 -34.085938 7.75 -34.265625 C 8.519531 -34.453125 9.269531 -34.453125 10 -34.265625 C 10.726562 -34.085938 11.3125 -33.710938 11.75 -33.140625 C 12.1875 -32.578125 12.351562 -31.8125 12.25 -30.84375 C 11.28125 -21.8125 10.53125 -12.765625 10 -3.703125 C 9.9375 -2.734375 9.632812 -1.960938 9.09375 -1.390625 C 8.5625 -0.828125 7.921875 -0.445312 7.171875 -0.25 C 6.421875 -0.0507812 5.675781 -0.0507812 4.9375 -0.25 C 4.207031 -0.445312 3.601562 -0.828125 3.125 -1.390625 C 2.644531 -1.960938 2.4375 -2.734375 2.5 -3.703125 C 3.03125 -12.765625 3.78125 -21.8125 4.75 -30.84375 Z M 4.75 -30.84375 "/></g></g></g><g fill="#2a2929" fill-opacity="1"><g transform="translate(259.825267, 248.196766)"><g><path d="M 21.90625 -26.546875 C 22.238281 -27.453125 22.753906 -28.101562 23.453125 -28.5 C 24.148438 -28.894531 24.890625 -29.082031 25.671875 -29.0625 C 26.453125 -29.050781 27.164062 -28.863281 27.8125 -28.5 C 28.46875 -28.132812 28.9375 -27.609375 29.21875 -26.921875 C 29.507812 -26.242188 29.488281 -25.453125 29.15625 -24.546875 C 26.050781 -16.316406 22.582031 -8.316406 18.75 -0.546875 C 18.3125 0.316406 17.664062 0.863281 16.8125 1.09375 C 15.96875 1.332031 15.117188 1.300781 14.265625 1 C 13.421875 0.695312 12.765625 0.179688 12.296875 -0.546875 C 10.628906 -3.117188 9.253906 -5.867188 8.171875 -8.796875 C 7.085938 -11.734375 6.128906 -14.71875 5.296875 -17.75 C 4.460938 -20.78125 3.597656 -23.726562 2.703125 -26.59375 C 2.398438 -27.53125 2.40625 -28.335938 2.71875 -29.015625 C 3.039062 -29.703125 3.535156 -30.238281 4.203125 -30.625 C 4.867188 -31.007812 5.582031 -31.207031 6.34375 -31.21875 C 7.113281 -31.238281 7.832031 -31.039062 8.5 -30.625 C 9.164062 -30.207031 9.632812 -29.53125 9.90625 -28.59375 C 10.800781 -25.757812 11.65625 -22.828125 12.46875 -19.796875 C 13.289062 -16.765625 14.269531 -13.832031 15.40625 -11 C 16.570312 -13.5625 17.695312 -16.132812 18.78125 -18.71875 C 19.863281 -21.300781 20.90625 -23.910156 21.90625 -26.546875 Z M 21.90625 -26.546875 "/></g></g></g><g fill="#2a2929" fill-opacity="1"><g transform="translate(294.720315, 248.196766)"><g><path d="M 20.84375 -10.59375 C 21.8125 -10.5625 22.585938 -10.285156 23.171875 -9.765625 C 23.753906 -9.253906 24.132812 -8.625 24.3125 -7.875 C 24.5 -7.125 24.5 -6.375 24.3125 -5.625 C 24.132812 -4.875 23.753906 -4.253906 23.171875 -3.765625 C 22.585938 -3.285156 21.8125 -3.082031 20.84375 -3.15625 C 18.582031 -3.21875 16.316406 -3.195312 14.046875 -3.09375 C 11.785156 -3 9.519531 -2.769531 7.25 -2.40625 C 6.550781 -2.269531 5.816406 -2.328125 5.046875 -2.578125 C 4.285156 -2.828125 3.644531 -3.234375 3.125 -3.796875 C 2.601562 -4.367188 2.410156 -5.101562 2.546875 -6 C 3.117188 -10.632812 3.742188 -15.25 4.421875 -19.84375 C 5.109375 -24.445312 5.851562 -29.03125 6.65625 -33.59375 C 6.75 -34.164062 6.945312 -34.664062 7.25 -35.09375 C 7.519531 -35.5625 7.90625 -35.945312 8.40625 -36.25 C 8.90625 -36.550781 9.519531 -36.71875 10.25 -36.75 C 13.851562 -36.882812 17.453125 -36.816406 21.046875 -36.546875 C 22.015625 -36.484375 22.789062 -36.175781 23.375 -35.625 C 23.957031 -35.070312 24.335938 -34.421875 24.515625 -33.671875 C 24.703125 -32.921875 24.703125 -32.175781 24.515625 -31.4375 C 24.335938 -30.707031 23.957031 -30.109375 23.375 -29.640625 C 22.789062 -29.179688 22.015625 -28.984375 21.046875 -29.046875 C 18.578125 -29.210938 16.0625 -29.296875 13.5 -29.296875 C 13.332031 -28.328125 13.164062 -27.359375 13 -26.390625 C 12.832031 -25.429688 12.679688 -24.46875 12.546875 -23.5 C 13.910156 -23.46875 15.226562 -23.398438 16.5 -23.296875 C 17.5 -23.160156 18.375 -22.773438 19.125 -22.140625 C 19.875 -21.515625 20.25 -20.648438 20.25 -19.546875 C 20.25 -18.910156 20.070312 -18.289062 19.71875 -17.6875 C 19.375 -17.09375 18.914062 -16.613281 18.34375 -16.25 C 17.78125 -15.882812 17.164062 -15.734375 16.5 -15.796875 C 14.800781 -15.960938 13.101562 -16.03125 11.40625 -16 C 11.269531 -15.0625 11.132812 -14.117188 11 -13.171875 C 10.863281 -12.222656 10.726562 -11.265625 10.59375 -10.296875 C 12.300781 -10.460938 14.003906 -10.578125 15.703125 -10.640625 C 17.398438 -10.710938 19.113281 -10.695312 20.84375 -10.59375 Z M 20.84375 -10.59375 "/></g></g></g></svg>