<svg xmlns="http://www.w3.org/2000/svg" xmlns:xlink="http://www.w3.org/1999/xlink" width="500" zoomAndPan="magnify" viewBox="0 0 375 374.999991" height="500" preserveAspectRatio="xMidYMid meet" version="1.0"><defs><g/><clipPath id="98104545c9"><path d="M 179 78.105469 L 205 78.105469 L 205 105 L 179 105 Z M 179 78.105469 " clip-rule="nonzero"/></clipPath><clipPath id="4d5f9ed0b1"><path d="M 106.835938 101 L 268.085938 101 L 268.085938 186.855469 L 106.835938 186.855469 Z M 106.835938 101 " clip-rule="nonzero"/></clipPath></defs><g clip-path="url(#98104545c9)"><path fill="#f1efe7" d="M 192.855469 81.511719 C 193.050781 81.800781 193.210938 82.105469 193.371094 82.414062 C 193.613281 82.285156 193.855469 82.15625 194.113281 82.058594 C 194.175781 82.027344 194.257812 81.992188 194.324219 81.960938 C 195.773438 81.414062 197.257812 81.382812 199.011719 81.929688 C 200.964844 82.558594 202.492188 83.910156 203.363281 85.585938 C 204.234375 87.265625 204.460938 89.292969 203.847656 91.246094 C 202.882812 94.257812 200.558594 96.707031 197.53125 98.851562 C 194.742188 100.851562 191.371094 102.574219 188.019531 104.316406 C 186.957031 104.863281 185.636719 104.445312 185.085938 103.382812 C 183.347656 100.027344 181.621094 96.675781 180.492188 93.421875 C 179.269531 89.921875 178.785156 86.570312 179.734375 83.558594 C 180.363281 81.605469 181.71875 80.074219 183.394531 79.207031 C 185.070312 78.335938 187.101562 78.109375 189.050781 78.722656 C 190.792969 79.316406 192 80.203125 192.855469 81.511719 Z M 190.003906 86.394531 C 189.824219 85.296875 189.601562 84.476562 189.230469 83.910156 L 189.230469 83.894531 C 188.9375 83.445312 188.457031 83.121094 187.730469 82.894531 C 186.925781 82.636719 186.085938 82.734375 185.394531 83.105469 C 184.699219 83.460938 184.136719 84.089844 183.878906 84.894531 C 183.25 86.878906 183.667969 89.328125 184.605469 92.003906 C 185.425781 94.339844 186.652344 96.886719 187.957031 99.449219 C 190.503906 98.109375 192.96875 96.757812 195 95.308594 C 197.304688 93.664062 199.0625 91.90625 199.691406 89.921875 C 199.949219 89.117188 199.851562 88.28125 199.480469 87.585938 C 199.125 86.894531 198.496094 86.328125 197.691406 86.070312 C 196.949219 85.828125 196.371094 85.828125 195.871094 86.023438 L 195.757812 86.070312 C 195.160156 86.328125 194.5 86.894531 193.742188 87.667969 C 192.902344 88.539062 191.519531 88.554688 190.664062 87.714844 C 190.277344 87.359375 190.066406 86.878906 190.003906 86.394531 Z M 190.003906 86.394531 " fill-opacity="1" fill-rule="evenodd"/></g><g clip-path="url(#4d5f9ed0b1)"><path fill="#f1efe7" d="M 250.652344 171.847656 C 250.136719 172.058594 249.605469 172.269531 249.058594 172.445312 C 250.265625 174.058594 251.425781 176.296875 251.71875 179.199219 C 251.828125 180.308594 251.007812 181.308594 249.894531 181.40625 C 248.785156 181.519531 247.785156 180.699219 247.6875 179.570312 C 247.382812 176.507812 245.722656 174.523438 244.625 173.542969 C 243.769531 173.6875 242.902344 173.78125 242.046875 173.832031 C 243.769531 175.589844 244.949219 177.617188 245.722656 180.292969 C 246.027344 181.34375 247.027344 182.210938 248.234375 182.679688 C 248.863281 182.921875 249.542969 183.035156 250.167969 183.003906 C 250.71875 182.96875 251.25 182.792969 251.667969 182.46875 C 252.378906 181.921875 252.910156 180.875 252.992188 179.167969 C 253.230469 174.089844 251.539062 172.378906 250.652344 171.847656 Z M 253.652344 154.585938 C 253.152344 158.277344 252.039062 163.453125 249.589844 167.867188 C 251.152344 167.175781 252.636719 166.304688 253.957031 165.257812 C 256.84375 162.984375 259.082031 159.003906 260.726562 154.667969 L 260.773438 154.554688 C 258.648438 154.667969 256.277344 154.683594 253.652344 154.585938 Z M 233.199219 117.484375 C 231.117188 117.484375 229.425781 120.175781 229.425781 123.480469 C 229.425781 126.785156 231.117188 129.476562 233.199219 129.476562 C 235.277344 129.476562 236.96875 126.785156 236.96875 123.480469 C 236.96875 120.160156 235.277344 117.484375 233.199219 117.484375 Z M 241.980469 156.925781 C 240.871094 156.925781 239.96875 157.828125 239.96875 158.9375 C 239.96875 160.050781 240.871094 160.953125 241.980469 160.953125 C 243.09375 160.953125 243.996094 160.050781 243.996094 158.9375 C 243.996094 157.828125 243.09375 156.925781 241.980469 156.925781 Z M 236.390625 151.589844 C 235.277344 151.589844 234.375 152.492188 234.375 153.605469 C 234.375 154.714844 235.277344 155.617188 236.390625 155.617188 C 237.5 155.617188 238.402344 154.714844 238.402344 153.605469 C 238.402344 152.492188 237.5 151.589844 236.390625 151.589844 Z M 234.535156 158.859375 C 233.421875 158.859375 232.519531 159.761719 232.519531 160.871094 C 232.519531 161.984375 233.421875 162.886719 234.535156 162.886719 C 235.648438 162.886719 236.550781 161.984375 236.550781 160.871094 C 236.550781 159.761719 235.648438 158.859375 234.535156 158.859375 Z M 215.597656 117.902344 C 213.519531 117.902344 211.824219 120.59375 211.824219 123.898438 C 211.824219 127.203125 213.519531 129.894531 215.597656 129.894531 C 217.675781 129.894531 219.371094 127.21875 219.371094 123.898438 C 219.371094 120.578125 217.675781 117.902344 215.597656 117.902344 Z M 157.253906 134.777344 C 157.253906 134.792969 159.75 140.675781 157.621094 141.691406 C 155.445312 142.742188 153.527344 139.324219 153.511719 139.324219 C 152.964844 138.339844 151.722656 138.003906 150.742188 138.566406 C 150.078125 138.9375 149.710938 139.613281 149.710938 140.324219 C 149.691406 140.742188 149.46875 143.417969 147.066406 143.707031 C 145.003906 143.949219 145.132812 137.535156 145.132812 137.519531 C 145.148438 136.40625 144.261719 135.472656 143.132812 135.457031 C 142.003906 135.4375 141.085938 136.324219 141.070312 137.453125 C 141.070312 137.484375 140.84375 148.558594 147.535156 147.753906 C 150.242188 147.429688 151.773438 145.964844 152.644531 144.433594 C 154.285156 145.738281 156.589844 146.6875 159.347656 145.367188 C 165.019531 142.660156 160.992188 133.28125 160.976562 133.246094 C 160.554688 132.214844 159.363281 131.714844 158.332031 132.136719 C 157.316406 132.554688 156.832031 133.730469 157.253906 134.777344 Z M 186.101562 131.214844 C 184.621094 135.085938 182.589844 142.644531 181.074219 150.394531 C 179.6875 157.441406 178.753906 164.5625 179.058594 169.058594 C 179.1875 171.027344 179.898438 172.378906 180.929688 173.25 C 181.605469 173.832031 182.460938 174.21875 183.394531 174.460938 C 184.425781 174.71875 185.554688 174.78125 186.699219 174.71875 C 190.132812 174.476562 193.644531 172.945312 195.417969 170.867188 C 199.542969 165.980469 197.496094 157.648438 195.789062 152.21875 C 193.660156 145.449219 190.082031 138.082031 186.101562 131.214844 Z M 213.96875 152.589844 C 213.535156 153.621094 212.34375 154.101562 211.308594 153.667969 C 210.277344 153.234375 209.796875 152.039062 210.230469 151.007812 C 210.230469 150.992188 212.421875 145.867188 218.417969 143.53125 C 219.464844 143.128906 220.640625 143.644531 221.046875 144.691406 C 221.449219 145.738281 220.933594 146.914062 219.886719 147.316406 C 218.902344 147.703125 218.0625 148.171875 217.355469 148.671875 C 218.078125 150.652344 220.109375 154.152344 222.722656 157.761719 C 225.089844 161.035156 227.894531 164.355469 230.636719 166.675781 C 231.828125 167.691406 233.261719 168.449219 234.84375 168.964844 L 234.921875 168.996094 C 236.96875 169.65625 239.257812 169.898438 241.59375 169.785156 C 242.160156 169.753906 242.707031 169.707031 243.269531 169.625 C 243.320312 169.578125 243.367188 169.542969 243.417969 169.496094 C 247.429688 165.433594 249.007812 158.730469 249.621094 154.265625 C 239.324219 152.507812 239.324219 142.355469 240.242188 136.390625 C 233.90625 137.210938 228.332031 138.179688 228.3125 138.195312 C 227.21875 138.390625 226.15625 137.664062 225.960938 136.550781 C 225.769531 135.457031 226.492188 134.390625 227.605469 134.199219 C 227.636719 134.199219 237.792969 132.410156 246.429688 131.621094 C 245.867188 128.800781 244.640625 123.722656 242.402344 117.9375 C 240.789062 113.777344 237.179688 110.183594 232.328125 107.925781 C 227.6875 105.765625 221.949219 104.832031 215.726562 105.734375 C 203.878906 107.492188 197.09375 123.109375 196.371094 124.816406 C 196.078125 125.753906 195.128906 126.363281 194.128906 126.21875 C 194.113281 126.21875 190.96875 125.71875 188.585938 127.445312 C 193.113281 135.019531 197.257812 143.351562 199.671875 150.976562 C 201.976562 158.277344 203.976562 167.03125 198.527344 173.476562 C 196.09375 176.34375 191.421875 178.457031 186.988281 178.761719 C 185.425781 178.875 183.863281 178.761719 182.429688 178.390625 C 180.898438 178.003906 179.496094 177.34375 178.316406 176.34375 C 176.480469 174.796875 175.238281 172.492188 175.015625 169.316406 C 174.675781 164.433594 175.640625 156.941406 177.09375 149.605469 C 178.929688 140.242188 181.574219 130.992188 183.183594 127.75 C 183.3125 127.492188 183.441406 127.25 183.589844 127.011719 C 182.394531 125.09375 181.171875 123.222656 179.960938 121.464844 C 174.109375 112.921875 168.679688 106.636719 166.535156 105.847656 C 162.363281 107.636719 160.941406 119.628906 160.894531 120.046875 C 160.796875 120.933594 160.136719 121.675781 159.21875 121.835938 L 141.554688 124.867188 C 140.507812 125.058594 139.472656 124.429688 139.199219 123.398438 C 138.828125 122.03125 136.542969 118.839844 133.769531 116.839844 C 132.738281 116.097656 131.671875 115.550781 130.707031 115.421875 C 129.949219 115.308594 129.191406 115.484375 128.53125 116.066406 C 127.339844 117.128906 126.289062 119.371094 125.597656 123.320312 C 124.535156 129.363281 123.292969 138.5 122.082031 148.21875 C 126.710938 149.492188 128.917969 151.234375 128.933594 151.25 C 129.820312 151.945312 129.980469 153.21875 129.304688 154.101562 C 128.613281 154.988281 127.339844 155.152344 126.453125 154.472656 C 126.453125 154.472656 124.921875 153.265625 121.585938 152.265625 C 121.34375 154.265625 121.101562 156.296875 120.859375 158.292969 C 125.660156 159.117188 128.160156 161.371094 128.175781 161.371094 C 129.015625 162.113281 129.09375 163.402344 128.355469 164.242188 C 127.613281 165.078125 126.324219 165.160156 125.484375 164.417969 C 125.484375 164.417969 123.808594 162.902344 120.390625 162.292969 C 118.425781 179.183594 118.972656 174.734375 118.957031 174.8125 C 118.84375 175.925781 117.84375 176.75 116.734375 176.636719 C 115.621094 176.523438 114.796875 175.523438 114.910156 174.410156 C 114.925781 174.332031 114.347656 178.910156 116.3125 162.097656 C 114.539062 162.210938 112.527344 162.566406 110.222656 163.304688 C 109.15625 163.644531 108.011719 163.066406 107.675781 162 C 107.335938 160.9375 107.917969 159.792969 108.980469 159.4375 C 111.914062 158.488281 114.507812 158.101562 116.78125 158.035156 C 117.039062 155.828125 117.3125 153.621094 117.570312 151.410156 C 115.234375 151.058594 112.398438 150.863281 109.027344 151.042969 C 107.917969 151.089844 106.949219 150.234375 106.902344 149.105469 C 106.835938 147.996094 107.707031 147.027344 108.820312 146.980469 C 112.398438 146.785156 115.476562 146.996094 118.070312 147.398438 C 119.28125 137.726562 120.519531 128.652344 121.566406 122.640625 C 122.4375 117.710938 123.953125 114.695312 125.824219 113.050781 C 127.484375 111.585938 129.351562 111.148438 131.238281 111.425781 C 132.929688 111.664062 134.589844 112.472656 136.121094 113.582031 C 138.78125 115.5 141.132812 118.46875 142.34375 120.644531 L 157.058594 118.128906 C 157.703125 114.164062 159.910156 103.703125 165.570312 101.914062 C 166.050781 101.769531 166.566406 101.753906 167.132812 101.867188 C 170.082031 102.460938 176.722656 109.585938 183.3125 119.226562 C 184.363281 120.757812 185.425781 122.367188 186.472656 124.011719 C 188.828125 122.433594 191.503906 122.140625 193.160156 122.140625 C 195.226562 117.695312 202.671875 103.605469 215.164062 101.769531 C 222.191406 100.738281 228.75 101.816406 234.066406 104.300781 C 239.855469 107.007812 244.207031 111.375 246.203125 116.515625 C 248.671875 122.882812 249.960938 128.492188 250.523438 131.363281 L 250.796875 131.34375 C 251.976562 131.296875 253.28125 131.199219 254.488281 131.121094 C 256.050781 131.007812 257.488281 130.910156 258.921875 130.894531 C 264.578125 130.8125 267.996094 131.988281 268.09375 138.242188 C 268.15625 142.402344 267.011719 149.621094 264.546875 156.148438 C 262.675781 161.097656 260.015625 165.738281 256.488281 168.511719 C 255.84375 169.027344 255.148438 169.496094 254.457031 169.945312 C 255.941406 171.640625 257.292969 174.523438 257.050781 179.425781 C 256.890625 182.503906 255.746094 184.550781 254.117188 185.773438 C 253.023438 186.597656 251.75 187.015625 250.445312 187.113281 C 249.21875 187.191406 247.945312 186.984375 246.769531 186.53125 C 244.480469 185.644531 242.496094 183.808594 241.820312 181.488281 C 241.242188 179.457031 240.355469 177.941406 239.082031 176.652344 C 237.742188 175.3125 235.90625 174.136719 233.472656 172.847656 C 231.441406 172.171875 229.605469 171.171875 228.023438 169.851562 C 225.027344 167.304688 221.980469 163.726562 219.433594 160.195312 C 217.273438 157.214844 215.46875 154.230469 214.339844 151.945312 C 214.082031 152.3125 213.96875 152.589844 213.96875 152.589844 Z M 213.96875 152.589844 " fill-opacity="1" fill-rule="evenodd"/></g><path fill="#f1efe7" d="M 132.078125 134.90625 C 133.574219 134.664062 135.1875 136.9375 135.671875 139.984375 C 136.15625 143.03125 135.347656 145.691406 133.847656 145.933594 C 132.351562 146.171875 130.738281 143.902344 130.253906 140.855469 C 129.753906 137.808594 130.578125 135.148438 132.078125 134.90625 Z M 132.078125 134.90625 " fill-opacity="1" fill-rule="evenodd"/><path fill="#f1efe7" d="M 170.035156 128.929688 C 171.53125 128.6875 173.144531 130.957031 173.628906 134.003906 C 174.109375 137.050781 173.304688 139.710938 171.804688 139.953125 C 170.308594 140.195312 168.695312 137.921875 168.210938 134.875 C 167.710938 131.828125 168.535156 129.167969 170.035156 128.929688 Z M 170.035156 128.929688 " fill-opacity="1" fill-rule="evenodd"/><g fill="#f1efe7" fill-opacity="1"><g transform="translate(124.392374, 279.271974)"><g><path d="M 6.953125 -7.796875 C 7.179688 -7.796875 7.375 -7.71875 7.53125 -7.5625 C 7.6875 -7.414062 7.765625 -7.226562 7.765625 -7 C 7.765625 -6.882812 7.722656 -6.738281 7.640625 -6.5625 L 4.921875 -0.546875 C 4.847656 -0.390625 4.742188 -0.257812 4.609375 -0.15625 C 4.484375 -0.0625 4.335938 -0.0078125 4.171875 0 L 4.046875 0.015625 C 3.878906 0.015625 3.722656 -0.0351562 3.578125 -0.140625 C 3.441406 -0.242188 3.332031 -0.378906 3.25 -0.546875 L 0.546875 -6.5625 C 0.472656 -6.71875 0.4375 -6.875 0.4375 -7.03125 C 0.4375 -7.226562 0.519531 -7.40625 0.6875 -7.5625 C 0.851562 -7.726562 1.054688 -7.8125 1.296875 -7.8125 C 1.484375 -7.8125 1.65625 -7.757812 1.8125 -7.65625 C 1.96875 -7.5625 2.082031 -7.425781 2.15625 -7.25 L 4.171875 -2.640625 L 6.171875 -7.234375 C 6.253906 -7.421875 6.363281 -7.5625 6.5 -7.65625 C 6.632812 -7.757812 6.785156 -7.804688 6.953125 -7.796875 Z M 6.953125 -7.796875 "/></g></g></g><g fill="#f1efe7" fill-opacity="1"><g transform="translate(133.467554, 279.271974)"><g><path d="M 7.953125 -4.09375 C 7.941406 -3.851562 7.847656 -3.660156 7.671875 -3.515625 C 7.492188 -3.367188 7.289062 -3.296875 7.0625 -3.296875 L 2.25 -3.296875 C 2.363281 -2.722656 2.628906 -2.269531 3.046875 -1.9375 C 3.460938 -1.613281 3.9375 -1.453125 4.46875 -1.453125 C 4.863281 -1.453125 5.171875 -1.488281 5.390625 -1.5625 C 5.617188 -1.632812 5.796875 -1.710938 5.921875 -1.796875 C 6.054688 -1.878906 6.148438 -1.9375 6.203125 -1.96875 C 6.378906 -2.050781 6.546875 -2.09375 6.703125 -2.09375 C 6.898438 -2.09375 7.070312 -2.019531 7.21875 -1.875 C 7.363281 -1.726562 7.4375 -1.5625 7.4375 -1.375 C 7.4375 -1.113281 7.300781 -0.875 7.03125 -0.65625 C 6.757812 -0.4375 6.394531 -0.25 5.9375 -0.09375 C 5.476562 0.0625 5.015625 0.140625 4.546875 0.140625 C 3.734375 0.140625 3.019531 -0.0234375 2.40625 -0.359375 C 1.800781 -0.703125 1.332031 -1.171875 1 -1.765625 C 0.675781 -2.367188 0.515625 -3.046875 0.515625 -3.796875 C 0.515625 -4.628906 0.6875 -5.363281 1.03125 -6 C 1.382812 -6.632812 1.847656 -7.117188 2.421875 -7.453125 C 2.992188 -7.785156 3.609375 -7.953125 4.265625 -7.953125 C 4.898438 -7.953125 5.503906 -7.773438 6.078125 -7.421875 C 6.648438 -7.078125 7.101562 -6.609375 7.4375 -6.015625 C 7.78125 -5.421875 7.953125 -4.78125 7.953125 -4.09375 Z M 4.265625 -6.34375 C 3.128906 -6.34375 2.460938 -5.8125 2.265625 -4.75 L 6.078125 -4.75 L 6.078125 -4.859375 C 6.046875 -5.265625 5.847656 -5.613281 5.484375 -5.90625 C 5.128906 -6.195312 4.722656 -6.34375 4.265625 -6.34375 Z M 4.265625 -6.34375 "/></g></g></g><g fill="#f1efe7" fill-opacity="1"><g transform="translate(142.805353, 279.271974)"><g><path d="M 4.71875 -1.65625 C 4.851562 -1.65625 4.972656 -1.585938 5.078125 -1.453125 C 5.191406 -1.316406 5.25 -1.144531 5.25 -0.9375 C 5.25 -0.675781 5.101562 -0.453125 4.8125 -0.265625 C 4.53125 -0.0859375 4.210938 0 3.859375 0 C 3.253906 0 2.742188 -0.128906 2.328125 -0.390625 C 1.910156 -0.648438 1.703125 -1.195312 1.703125 -2.03125 L 1.703125 -6.0625 L 1.03125 -6.0625 C 0.800781 -6.0625 0.609375 -6.140625 0.453125 -6.296875 C 0.296875 -6.453125 0.21875 -6.644531 0.21875 -6.875 C 0.21875 -7.09375 0.296875 -7.273438 0.453125 -7.421875 C 0.609375 -7.578125 0.800781 -7.65625 1.03125 -7.65625 L 1.703125 -7.65625 L 1.703125 -8.59375 C 1.703125 -8.84375 1.785156 -9.050781 1.953125 -9.21875 C 2.128906 -9.394531 2.34375 -9.484375 2.59375 -9.484375 C 2.84375 -9.484375 3.046875 -9.394531 3.203125 -9.21875 C 3.367188 -9.050781 3.453125 -8.84375 3.453125 -8.59375 L 3.453125 -7.65625 L 4.5 -7.65625 C 4.726562 -7.65625 4.921875 -7.578125 5.078125 -7.421875 C 5.234375 -7.265625 5.3125 -7.070312 5.3125 -6.84375 C 5.3125 -6.625 5.234375 -6.4375 5.078125 -6.28125 C 4.921875 -6.132812 4.726562 -6.0625 4.5 -6.0625 L 3.453125 -6.0625 L 3.453125 -2.09375 C 3.453125 -1.894531 3.503906 -1.75 3.609375 -1.65625 C 3.722656 -1.5625 3.875 -1.515625 4.0625 -1.515625 C 4.132812 -1.515625 4.238281 -1.535156 4.375 -1.578125 C 4.488281 -1.628906 4.601562 -1.65625 4.71875 -1.65625 Z M 4.71875 -1.65625 "/></g></g></g><g fill="#f1efe7" fill-opacity="1"><g transform="translate(149.648293, 279.271974)"><g><path d="M 7.953125 -4.09375 C 7.941406 -3.851562 7.847656 -3.660156 7.671875 -3.515625 C 7.492188 -3.367188 7.289062 -3.296875 7.0625 -3.296875 L 2.25 -3.296875 C 2.363281 -2.722656 2.628906 -2.269531 3.046875 -1.9375 C 3.460938 -1.613281 3.9375 -1.453125 4.46875 -1.453125 C 4.863281 -1.453125 5.171875 -1.488281 5.390625 -1.5625 C 5.617188 -1.632812 5.796875 -1.710938 5.921875 -1.796875 C 6.054688 -1.878906 6.148438 -1.9375 6.203125 -1.96875 C 6.378906 -2.050781 6.546875 -2.09375 6.703125 -2.09375 C 6.898438 -2.09375 7.070312 -2.019531 7.21875 -1.875 C 7.363281 -1.726562 7.4375 -1.5625 7.4375 -1.375 C 7.4375 -1.113281 7.300781 -0.875 7.03125 -0.65625 C 6.757812 -0.4375 6.394531 -0.25 5.9375 -0.09375 C 5.476562 0.0625 5.015625 0.140625 4.546875 0.140625 C 3.734375 0.140625 3.019531 -0.0234375 2.40625 -0.359375 C 1.800781 -0.703125 1.332031 -1.171875 1 -1.765625 C 0.675781 -2.367188 0.515625 -3.046875 0.515625 -3.796875 C 0.515625 -4.628906 0.6875 -5.363281 1.03125 -6 C 1.382812 -6.632812 1.847656 -7.117188 2.421875 -7.453125 C 2.992188 -7.785156 3.609375 -7.953125 4.265625 -7.953125 C 4.898438 -7.953125 5.503906 -7.773438 6.078125 -7.421875 C 6.648438 -7.078125 7.101562 -6.609375 7.4375 -6.015625 C 7.78125 -5.421875 7.953125 -4.78125 7.953125 -4.09375 Z M 4.265625 -6.34375 C 3.128906 -6.34375 2.460938 -5.8125 2.265625 -4.75 L 6.078125 -4.75 L 6.078125 -4.859375 C 6.046875 -5.265625 5.847656 -5.613281 5.484375 -5.90625 C 5.128906 -6.195312 4.722656 -6.34375 4.265625 -6.34375 Z M 4.265625 -6.34375 "/></g></g></g><g fill="#f1efe7" fill-opacity="1"><g transform="translate(158.986093, 279.271974)"><g><path d="M 5 -7.953125 C 5.289062 -7.953125 5.535156 -7.867188 5.734375 -7.703125 C 5.941406 -7.535156 6.046875 -7.34375 6.046875 -7.125 C 6.046875 -6.820312 5.96875 -6.59375 5.8125 -6.4375 C 5.65625 -6.289062 5.46875 -6.21875 5.25 -6.21875 C 5.101562 -6.21875 4.9375 -6.25 4.75 -6.3125 C 4.726562 -6.320312 4.664062 -6.34375 4.5625 -6.375 C 4.457031 -6.40625 4.347656 -6.421875 4.234375 -6.421875 C 3.984375 -6.421875 3.738281 -6.34375 3.5 -6.1875 C 3.269531 -6.03125 3.078125 -5.789062 2.921875 -5.46875 C 2.773438 -5.15625 2.703125 -4.78125 2.703125 -4.34375 L 2.703125 -0.890625 C 2.703125 -0.640625 2.617188 -0.425781 2.453125 -0.25 C 2.285156 -0.0820312 2.078125 0 1.828125 0 C 1.566406 0 1.351562 -0.0820312 1.1875 -0.25 C 1.03125 -0.425781 0.953125 -0.640625 0.953125 -0.890625 L 0.953125 -6.921875 C 0.953125 -7.171875 1.03125 -7.378906 1.1875 -7.546875 C 1.351562 -7.722656 1.566406 -7.8125 1.828125 -7.8125 C 2.078125 -7.8125 2.285156 -7.722656 2.453125 -7.546875 C 2.617188 -7.378906 2.703125 -7.171875 2.703125 -6.921875 L 2.703125 -6.734375 C 2.921875 -7.128906 3.238281 -7.429688 3.65625 -7.640625 C 4.082031 -7.847656 4.53125 -7.953125 5 -7.953125 Z M 5 -7.953125 "/></g></g></g><g fill="#f1efe7" fill-opacity="1"><g transform="translate(166.193782, 279.271974)"><g><path d="M 2.59375 -0.890625 C 2.59375 -0.640625 2.507812 -0.425781 2.34375 -0.25 C 2.175781 -0.0820312 1.96875 0 1.71875 0 C 1.46875 0 1.257812 -0.0820312 1.09375 -0.25 C 0.925781 -0.425781 0.84375 -0.640625 0.84375 -0.890625 L 0.84375 -6.921875 C 0.84375 -7.171875 0.925781 -7.378906 1.09375 -7.546875 C 1.257812 -7.722656 1.46875 -7.8125 1.71875 -7.8125 C 1.96875 -7.8125 2.175781 -7.722656 2.34375 -7.546875 C 2.507812 -7.378906 2.59375 -7.171875 2.59375 -6.921875 Z M 1.71875 -8.75 C 1.382812 -8.75 1.148438 -8.800781 1.015625 -8.90625 C 0.878906 -9.019531 0.8125 -9.210938 0.8125 -9.484375 L 0.8125 -9.765625 C 0.8125 -10.035156 0.882812 -10.222656 1.03125 -10.328125 C 1.175781 -10.441406 1.40625 -10.5 1.71875 -10.5 C 2.0625 -10.5 2.300781 -10.441406 2.4375 -10.328125 C 2.570312 -10.222656 2.640625 -10.035156 2.640625 -9.765625 L 2.640625 -9.484375 C 2.640625 -9.203125 2.566406 -9.007812 2.421875 -8.90625 C 2.285156 -8.800781 2.050781 -8.75 1.71875 -8.75 Z M 1.71875 -8.75 "/></g></g></g><g fill="#f1efe7" fill-opacity="1"><g transform="translate(170.512696, 279.271974)"><g><path d="M 5.125 -7.953125 C 6.113281 -7.953125 6.796875 -7.65625 7.171875 -7.0625 C 7.554688 -6.476562 7.75 -5.664062 7.75 -4.625 L 7.75 -0.890625 C 7.75 -0.640625 7.664062 -0.425781 7.5 -0.25 C 7.332031 -0.0820312 7.125 0 6.875 0 C 6.625 0 6.414062 -0.0820312 6.25 -0.25 C 6.082031 -0.425781 6 -0.640625 6 -0.890625 L 6 -4.625 C 6 -5.15625 5.882812 -5.570312 5.65625 -5.875 C 5.4375 -6.1875 5.054688 -6.34375 4.515625 -6.34375 C 3.941406 -6.34375 3.492188 -6.179688 3.171875 -5.859375 C 2.859375 -5.535156 2.703125 -5.125 2.703125 -4.625 L 2.703125 -0.890625 C 2.703125 -0.640625 2.617188 -0.425781 2.453125 -0.25 C 2.285156 -0.0820312 2.078125 0 1.828125 0 C 1.566406 0 1.351562 -0.0820312 1.1875 -0.25 C 1.03125 -0.425781 0.953125 -0.640625 0.953125 -0.890625 L 0.953125 -6.921875 C 0.953125 -7.171875 1.03125 -7.378906 1.1875 -7.546875 C 1.351562 -7.722656 1.566406 -7.8125 1.828125 -7.8125 C 2.078125 -7.8125 2.285156 -7.722656 2.453125 -7.546875 C 2.617188 -7.378906 2.703125 -7.171875 2.703125 -6.921875 L 2.703125 -6.671875 C 2.960938 -7.015625 3.300781 -7.3125 3.71875 -7.5625 C 4.144531 -7.820312 4.613281 -7.953125 5.125 -7.953125 Z M 5.125 -7.953125 "/></g></g></g><g fill="#f1efe7" fill-opacity="1"><g transform="translate(180.083933, 279.271974)"><g><path d="M 7.265625 -7.953125 C 7.515625 -7.953125 7.722656 -7.867188 7.890625 -7.703125 C 8.054688 -7.535156 8.140625 -7.320312 8.140625 -7.0625 L 8.140625 -0.890625 C 8.140625 -0.640625 8.054688 -0.425781 7.890625 -0.25 C 7.722656 -0.0820312 7.515625 0 7.265625 0 C 7.015625 0 6.804688 -0.0820312 6.640625 -0.25 C 6.484375 -0.414062 6.398438 -0.625 6.390625 -0.875 C 6.148438 -0.59375 5.820312 -0.351562 5.40625 -0.15625 C 4.988281 0.0390625 4.550781 0.140625 4.09375 0.140625 C 3.425781 0.140625 2.816406 -0.03125 2.265625 -0.375 C 1.722656 -0.71875 1.296875 -1.195312 0.984375 -1.8125 C 0.671875 -2.425781 0.515625 -3.117188 0.515625 -3.890625 C 0.515625 -4.671875 0.664062 -5.367188 0.96875 -5.984375 C 1.28125 -6.609375 1.707031 -7.09375 2.25 -7.4375 C 2.789062 -7.78125 3.390625 -7.953125 4.046875 -7.953125 C 4.515625 -7.953125 4.953125 -7.863281 5.359375 -7.6875 C 5.765625 -7.519531 6.109375 -7.304688 6.390625 -7.046875 L 6.390625 -7.0625 C 6.390625 -7.3125 6.472656 -7.519531 6.640625 -7.6875 C 6.804688 -7.863281 7.015625 -7.953125 7.265625 -7.953125 Z M 4.3125 -1.453125 C 4.945312 -1.453125 5.460938 -1.679688 5.859375 -2.140625 C 6.265625 -2.609375 6.46875 -3.191406 6.46875 -3.890625 C 6.46875 -4.597656 6.265625 -5.179688 5.859375 -5.640625 C 5.460938 -6.109375 4.945312 -6.34375 4.3125 -6.34375 C 3.695312 -6.34375 3.1875 -6.109375 2.78125 -5.640625 C 2.382812 -5.179688 2.1875 -4.597656 2.1875 -3.890625 C 2.1875 -3.191406 2.382812 -2.609375 2.78125 -2.140625 C 3.175781 -1.679688 3.6875 -1.453125 4.3125 -1.453125 Z M 4.3125 -1.453125 "/></g></g></g><g fill="#f1efe7" fill-opacity="1"><g transform="translate(190.049087, 279.271974)"><g><path d="M 5 -7.953125 C 5.289062 -7.953125 5.535156 -7.867188 5.734375 -7.703125 C 5.941406 -7.535156 6.046875 -7.34375 6.046875 -7.125 C 6.046875 -6.820312 5.96875 -6.59375 5.8125 -6.4375 C 5.65625 -6.289062 5.46875 -6.21875 5.25 -6.21875 C 5.101562 -6.21875 4.9375 -6.25 4.75 -6.3125 C 4.726562 -6.320312 4.664062 -6.34375 4.5625 -6.375 C 4.457031 -6.40625 4.347656 -6.421875 4.234375 -6.421875 C 3.984375 -6.421875 3.738281 -6.34375 3.5 -6.1875 C 3.269531 -6.03125 3.078125 -5.789062 2.921875 -5.46875 C 2.773438 -5.15625 2.703125 -4.78125 2.703125 -4.34375 L 2.703125 -0.890625 C 2.703125 -0.640625 2.617188 -0.425781 2.453125 -0.25 C 2.285156 -0.0820312 2.078125 0 1.828125 0 C 1.566406 0 1.351562 -0.0820312 1.1875 -0.25 C 1.03125 -0.425781 0.953125 -0.640625 0.953125 -0.890625 L 0.953125 -6.921875 C 0.953125 -7.171875 1.03125 -7.378906 1.1875 -7.546875 C 1.351562 -7.722656 1.566406 -7.8125 1.828125 -7.8125 C 2.078125 -7.8125 2.285156 -7.722656 2.453125 -7.546875 C 2.617188 -7.378906 2.703125 -7.171875 2.703125 -6.921875 L 2.703125 -6.734375 C 2.921875 -7.128906 3.238281 -7.429688 3.65625 -7.640625 C 4.082031 -7.847656 4.53125 -7.953125 5 -7.953125 Z M 5 -7.953125 "/></g></g></g><g fill="#f1efe7" fill-opacity="1"><g transform="translate(197.256776, 279.271974)"><g><path d="M 6.75 -7.8125 C 7 -7.8125 7.207031 -7.722656 7.375 -7.546875 C 7.539062 -7.378906 7.625 -7.171875 7.625 -6.921875 L 7.625 -0.71875 C 7.625 0.550781 7.28125 1.472656 6.59375 2.046875 C 5.914062 2.628906 5.007812 2.921875 3.875 2.921875 C 3.539062 2.921875 3.195312 2.894531 2.84375 2.84375 C 2.5 2.789062 2.222656 2.71875 2.015625 2.625 C 1.535156 2.425781 1.296875 2.144531 1.296875 1.78125 C 1.296875 1.707031 1.3125 1.628906 1.34375 1.546875 C 1.40625 1.328125 1.503906 1.160156 1.640625 1.046875 C 1.785156 0.941406 1.9375 0.890625 2.09375 0.890625 C 2.195312 0.890625 2.289062 0.90625 2.375 0.9375 C 2.445312 0.96875 2.566406 1.015625 2.734375 1.078125 C 2.898438 1.148438 3.078125 1.207031 3.265625 1.25 C 3.460938 1.289062 3.664062 1.3125 3.875 1.3125 C 4.5625 1.3125 5.066406 1.160156 5.390625 0.859375 C 5.710938 0.566406 5.875 0.0625 5.875 -0.65625 L 5.875 -0.796875 C 5.375 -0.171875 4.585938 0.140625 3.515625 0.140625 C 3.015625 0.140625 2.566406 0.0234375 2.171875 -0.203125 C 1.785156 -0.441406 1.484375 -0.773438 1.265625 -1.203125 C 1.054688 -1.628906 0.953125 -2.113281 0.953125 -2.65625 L 0.953125 -6.921875 C 0.953125 -7.171875 1.03125 -7.378906 1.1875 -7.546875 C 1.351562 -7.722656 1.566406 -7.8125 1.828125 -7.8125 C 2.078125 -7.8125 2.285156 -7.722656 2.453125 -7.546875 C 2.617188 -7.378906 2.703125 -7.171875 2.703125 -6.921875 L 2.703125 -3.1875 C 2.703125 -2.570312 2.832031 -2.128906 3.09375 -1.859375 C 3.363281 -1.585938 3.757812 -1.453125 4.28125 -1.453125 C 4.78125 -1.453125 5.164062 -1.597656 5.4375 -1.890625 C 5.71875 -2.191406 5.859375 -2.625 5.859375 -3.1875 L 5.859375 -6.921875 C 5.859375 -7.171875 5.941406 -7.378906 6.109375 -7.546875 C 6.273438 -7.722656 6.488281 -7.8125 6.75 -7.8125 Z M 6.75 -7.8125 "/></g></g></g><g fill="#f1efe7" fill-opacity="1"><g transform="translate(206.696704, 279.271974)"><g/></g></g><g fill="#f1efe7" fill-opacity="1"><g transform="translate(211.657563, 279.271974)"><g><path d="M 4.34375 -7.953125 C 5.175781 -7.953125 5.84375 -7.820312 6.34375 -7.5625 C 6.851562 -7.3125 7.109375 -6.96875 7.109375 -6.53125 C 7.109375 -6.320312 7.046875 -6.132812 6.921875 -5.96875 C 6.796875 -5.8125 6.628906 -5.734375 6.421875 -5.734375 C 6.265625 -5.734375 6.132812 -5.753906 6.03125 -5.796875 C 5.9375 -5.835938 5.84375 -5.894531 5.75 -5.96875 C 5.664062 -6.039062 5.578125 -6.101562 5.484375 -6.15625 C 5.390625 -6.207031 5.242188 -6.25 5.046875 -6.28125 C 4.859375 -6.320312 4.707031 -6.34375 4.59375 -6.34375 C 3.863281 -6.34375 3.289062 -6.113281 2.875 -5.65625 C 2.46875 -5.207031 2.265625 -4.617188 2.265625 -3.890625 C 2.265625 -3.191406 2.472656 -2.609375 2.890625 -2.140625 C 3.304688 -1.679688 3.84375 -1.453125 4.5 -1.453125 C 4.96875 -1.453125 5.320312 -1.515625 5.5625 -1.640625 C 5.613281 -1.660156 5.691406 -1.707031 5.796875 -1.78125 C 5.898438 -1.851562 5.992188 -1.910156 6.078125 -1.953125 C 6.171875 -1.992188 6.28125 -2.015625 6.40625 -2.015625 C 6.644531 -2.015625 6.832031 -1.9375 6.96875 -1.78125 C 7.113281 -1.625 7.1875 -1.425781 7.1875 -1.1875 C 7.1875 -0.945312 7.050781 -0.722656 6.78125 -0.515625 C 6.507812 -0.316406 6.148438 -0.15625 5.703125 -0.03125 C 5.253906 0.0820312 4.78125 0.140625 4.28125 0.140625 C 3.53125 0.140625 2.867188 -0.03125 2.296875 -0.375 C 1.722656 -0.726562 1.28125 -1.210938 0.96875 -1.828125 C 0.664062 -2.453125 0.515625 -3.140625 0.515625 -3.890625 C 0.515625 -4.679688 0.675781 -5.382812 1 -6 C 1.320312 -6.613281 1.773438 -7.09375 2.359375 -7.4375 C 2.941406 -7.78125 3.601562 -7.953125 4.34375 -7.953125 Z M 4.34375 -7.953125 "/></g></g></g><g fill="#f1efe7" fill-opacity="1"><g transform="translate(220.047025, 279.271974)"><g><path d="M 2.84375 -0.890625 C 2.84375 -0.640625 2.753906 -0.425781 2.578125 -0.25 C 2.410156 -0.0820312 2.203125 0 1.953125 0 C 1.710938 0 1.507812 -0.0820312 1.34375 -0.25 C 1.175781 -0.425781 1.09375 -0.640625 1.09375 -0.890625 L 1.09375 -9.90625 C 1.09375 -10.15625 1.175781 -10.363281 1.34375 -10.53125 C 1.519531 -10.707031 1.734375 -10.796875 1.984375 -10.796875 C 2.222656 -10.796875 2.425781 -10.707031 2.59375 -10.53125 C 2.757812 -10.363281 2.84375 -10.15625 2.84375 -9.90625 Z M 2.84375 -0.890625 "/></g></g></g><g fill="#f1efe7" fill-opacity="1"><g transform="translate(224.861984, 279.271974)"><g><path d="M 2.59375 -0.890625 C 2.59375 -0.640625 2.507812 -0.425781 2.34375 -0.25 C 2.175781 -0.0820312 1.96875 0 1.71875 0 C 1.46875 0 1.257812 -0.0820312 1.09375 -0.25 C 0.925781 -0.425781 0.84375 -0.640625 0.84375 -0.890625 L 0.84375 -6.921875 C 0.84375 -7.171875 0.925781 -7.378906 1.09375 -7.546875 C 1.257812 -7.722656 1.46875 -7.8125 1.71875 -7.8125 C 1.96875 -7.8125 2.175781 -7.722656 2.34375 -7.546875 C 2.507812 -7.378906 2.59375 -7.171875 2.59375 -6.921875 Z M 1.71875 -8.75 C 1.382812 -8.75 1.148438 -8.800781 1.015625 -8.90625 C 0.878906 -9.019531 0.8125 -9.210938 0.8125 -9.484375 L 0.8125 -9.765625 C 0.8125 -10.035156 0.882812 -10.222656 1.03125 -10.328125 C 1.175781 -10.441406 1.40625 -10.5 1.71875 -10.5 C 2.0625 -10.5 2.300781 -10.441406 2.4375 -10.328125 C 2.570312 -10.222656 2.640625 -10.035156 2.640625 -9.765625 L 2.640625 -9.484375 C 2.640625 -9.203125 2.566406 -9.007812 2.421875 -8.90625 C 2.285156 -8.800781 2.050781 -8.75 1.71875 -8.75 Z M 1.71875 -8.75 "/></g></g></g><g fill="#f1efe7" fill-opacity="1"><g transform="translate(229.180892, 279.271974)"><g><path d="M 5.125 -7.953125 C 6.113281 -7.953125 6.796875 -7.65625 7.171875 -7.0625 C 7.554688 -6.476562 7.75 -5.664062 7.75 -4.625 L 7.75 -0.890625 C 7.75 -0.640625 7.664062 -0.425781 7.5 -0.25 C 7.332031 -0.0820312 7.125 0 6.875 0 C 6.625 0 6.414062 -0.0820312 6.25 -0.25 C 6.082031 -0.425781 6 -0.640625 6 -0.890625 L 6 -4.625 C 6 -5.15625 5.882812 -5.570312 5.65625 -5.875 C 5.4375 -6.1875 5.054688 -6.34375 4.515625 -6.34375 C 3.941406 -6.34375 3.492188 -6.179688 3.171875 -5.859375 C 2.859375 -5.535156 2.703125 -5.125 2.703125 -4.625 L 2.703125 -0.890625 C 2.703125 -0.640625 2.617188 -0.425781 2.453125 -0.25 C 2.285156 -0.0820312 2.078125 0 1.828125 0 C 1.566406 0 1.351562 -0.0820312 1.1875 -0.25 C 1.03125 -0.425781 0.953125 -0.640625 0.953125 -0.890625 L 0.953125 -6.921875 C 0.953125 -7.171875 1.03125 -7.378906 1.1875 -7.546875 C 1.351562 -7.722656 1.566406 -7.8125 1.828125 -7.8125 C 2.078125 -7.8125 2.285156 -7.722656 2.453125 -7.546875 C 2.617188 -7.378906 2.703125 -7.171875 2.703125 -6.921875 L 2.703125 -6.671875 C 2.960938 -7.015625 3.300781 -7.3125 3.71875 -7.5625 C 4.144531 -7.820312 4.613281 -7.953125 5.125 -7.953125 Z M 5.125 -7.953125 "/></g></g></g><g fill="#f1efe7" fill-opacity="1"><g transform="translate(238.752123, 279.271974)"><g><path d="M 2.59375 -0.890625 C 2.59375 -0.640625 2.507812 -0.425781 2.34375 -0.25 C 2.175781 -0.0820312 1.96875 0 1.71875 0 C 1.46875 0 1.257812 -0.0820312 1.09375 -0.25 C 0.925781 -0.425781 0.84375 -0.640625 0.84375 -0.890625 L 0.84375 -6.921875 C 0.84375 -7.171875 0.925781 -7.378906 1.09375 -7.546875 C 1.257812 -7.722656 1.46875 -7.8125 1.71875 -7.8125 C 1.96875 -7.8125 2.175781 -7.722656 2.34375 -7.546875 C 2.507812 -7.378906 2.59375 -7.171875 2.59375 -6.921875 Z M 1.71875 -8.75 C 1.382812 -8.75 1.148438 -8.800781 1.015625 -8.90625 C 0.878906 -9.019531 0.8125 -9.210938 0.8125 -9.484375 L 0.8125 -9.765625 C 0.8125 -10.035156 0.882812 -10.222656 1.03125 -10.328125 C 1.175781 -10.441406 1.40625 -10.5 1.71875 -10.5 C 2.0625 -10.5 2.300781 -10.441406 2.4375 -10.328125 C 2.570312 -10.222656 2.640625 -10.035156 2.640625 -9.765625 L 2.640625 -9.484375 C 2.640625 -9.203125 2.566406 -9.007812 2.421875 -8.90625 C 2.285156 -8.800781 2.050781 -8.75 1.71875 -8.75 Z M 1.71875 -8.75 "/></g></g></g><g fill="#f1efe7" fill-opacity="1"><g transform="translate(243.071032, 279.271974)"><g><path d="M 4.34375 -7.953125 C 5.175781 -7.953125 5.84375 -7.820312 6.34375 -7.5625 C 6.851562 -7.3125 7.109375 -6.96875 7.109375 -6.53125 C 7.109375 -6.320312 7.046875 -6.132812 6.921875 -5.96875 C 6.796875 -5.8125 6.628906 -5.734375 6.421875 -5.734375 C 6.265625 -5.734375 6.132812 -5.753906 6.03125 -5.796875 C 5.9375 -5.835938 5.84375 -5.894531 5.75 -5.96875 C 5.664062 -6.039062 5.578125 -6.101562 5.484375 -6.15625 C 5.390625 -6.207031 5.242188 -6.25 5.046875 -6.28125 C 4.859375 -6.320312 4.707031 -6.34375 4.59375 -6.34375 C 3.863281 -6.34375 3.289062 -6.113281 2.875 -5.65625 C 2.46875 -5.207031 2.265625 -4.617188 2.265625 -3.890625 C 2.265625 -3.191406 2.472656 -2.609375 2.890625 -2.140625 C 3.304688 -1.679688 3.84375 -1.453125 4.5 -1.453125 C 4.96875 -1.453125 5.320312 -1.515625 5.5625 -1.640625 C 5.613281 -1.660156 5.691406 -1.707031 5.796875 -1.78125 C 5.898438 -1.851562 5.992188 -1.910156 6.078125 -1.953125 C 6.171875 -1.992188 6.28125 -2.015625 6.40625 -2.015625 C 6.644531 -2.015625 6.832031 -1.9375 6.96875 -1.78125 C 7.113281 -1.625 7.1875 -1.425781 7.1875 -1.1875 C 7.1875 -0.945312 7.050781 -0.722656 6.78125 -0.515625 C 6.507812 -0.316406 6.148438 -0.15625 5.703125 -0.03125 C 5.253906 0.0820312 4.78125 0.140625 4.28125 0.140625 C 3.53125 0.140625 2.867188 -0.03125 2.296875 -0.375 C 1.722656 -0.726562 1.28125 -1.210938 0.96875 -1.828125 C 0.664062 -2.453125 0.515625 -3.140625 0.515625 -3.890625 C 0.515625 -4.679688 0.675781 -5.382812 1 -6 C 1.320312 -6.613281 1.773438 -7.09375 2.359375 -7.4375 C 2.941406 -7.78125 3.601562 -7.953125 4.34375 -7.953125 Z M 4.34375 -7.953125 "/></g></g></g><g fill="#f1efe7" fill-opacity="1"><g transform="translate(66.027294, 251.293519)"><g><path d="M 21.015625 -35.5625 C 22.671875 -34.875 24.179688 -33.984375 25.546875 -32.890625 C 26.921875 -31.796875 28.03125 -30.53125 28.875 -29.09375 C 29.726562 -27.65625 30.21875 -26.101562 30.34375 -24.4375 C 30.46875 -22.769531 30.113281 -21.035156 29.28125 -19.234375 C 28.195312 -17.054688 26.703125 -15.316406 24.796875 -14.015625 C 22.890625 -12.710938 20.785156 -11.878906 18.484375 -11.515625 C 16.179688 -11.148438 13.898438 -11.226562 11.640625 -11.75 C 11.441406 -9.769531 11.238281 -7.789062 11.03125 -5.8125 C 10.820312 -3.84375 10.613281 -1.867188 10.40625 0.109375 C 10.300781 1.078125 9.960938 1.863281 9.390625 2.46875 C 8.816406 3.070312 8.128906 3.46875 7.328125 3.65625 C 6.535156 3.851562 5.753906 3.851562 4.984375 3.65625 C 4.222656 3.46875 3.617188 3.078125 3.171875 2.484375 C 2.722656 1.898438 2.53125 1.109375 2.59375 0.109375 C 3.082031 -4.578125 3.550781 -9.25 4 -13.90625 C 4.457031 -18.570312 4.941406 -23.226562 5.453125 -27.875 C 5.703125 -29.707031 6.207031 -31.359375 6.96875 -32.828125 C 7.726562 -34.304688 9.03125 -35.394531 10.875 -36.09375 C 12.5 -36.71875 14.203125 -36.941406 15.984375 -36.765625 C 17.773438 -36.585938 19.453125 -36.1875 21.015625 -35.5625 Z M 12.421875 -19.609375 C 13.296875 -19.359375 14.285156 -19.21875 15.390625 -19.1875 C 16.503906 -19.15625 17.597656 -19.273438 18.671875 -19.546875 C 19.742188 -19.828125 20.644531 -20.304688 21.375 -20.984375 C 22.101562 -21.660156 22.519531 -22.585938 22.625 -23.765625 C 22.6875 -24.523438 22.421875 -25.257812 21.828125 -25.96875 C 21.242188 -26.6875 20.484375 -27.300781 19.546875 -27.8125 C 18.609375 -28.332031 17.671875 -28.707031 16.734375 -28.9375 C 15.804688 -29.164062 15.015625 -29.191406 14.359375 -29.015625 C 13.972656 -28.878906 13.734375 -28.789062 13.640625 -28.75 C 13.554688 -28.71875 13.515625 -28.648438 13.515625 -28.546875 C 13.515625 -28.441406 13.429688 -28.21875 13.265625 -27.875 C 13.054688 -27.425781 12.953125 -26.816406 12.953125 -26.046875 C 12.953125 -25.285156 12.929688 -24.628906 12.890625 -24.078125 C 12.828125 -23.316406 12.75 -22.570312 12.65625 -21.84375 C 12.570312 -21.113281 12.492188 -20.367188 12.421875 -19.609375 Z M 12.421875 -19.609375 "/></g></g></g><g fill="#f1efe7" fill-opacity="1"><g transform="translate(102.112785, 251.293519)"><g><path d="M 26.9375 -22.828125 C 27.039062 -19.359375 27.125 -15.890625 27.1875 -12.421875 C 27.257812 -8.960938 27.347656 -5.5 27.453125 -2.03125 C 27.492188 -1.019531 27.253906 -0.210938 26.734375 0.390625 C 26.210938 0.992188 25.566406 1.390625 24.796875 1.578125 C 24.035156 1.773438 23.265625 1.769531 22.484375 1.5625 C 21.703125 1.351562 21.039062 0.953125 20.5 0.359375 C 19.96875 -0.222656 19.6875 -1.019531 19.65625 -2.03125 C 19.625 -3.070312 19.597656 -4.109375 19.578125 -5.140625 C 19.554688 -6.179688 19.53125 -7.222656 19.5 -8.265625 L 11.703125 -8.53125 C 11.421875 -7.25 11.160156 -5.945312 10.921875 -4.625 C 10.679688 -3.3125 10.4375 -1.992188 10.1875 -0.671875 C 10.019531 0.296875 9.628906 1.003906 9.015625 1.453125 C 8.410156 1.898438 7.707031 2.125 6.90625 2.125 C 6.113281 2.125 5.363281 1.914062 4.65625 1.5 C 3.945312 1.09375 3.390625 0.523438 2.984375 -0.203125 C 2.585938 -0.929688 2.476562 -1.78125 2.65625 -2.75 C 3.28125 -6.15625 3.976562 -9.519531 4.75 -12.84375 C 5.53125 -16.175781 6.632812 -19.414062 8.0625 -22.5625 C 8.75 -24.125 9.628906 -25.804688 10.703125 -27.609375 C 11.785156 -29.410156 13.007812 -31.066406 14.375 -32.578125 C 15.75 -34.085938 17.265625 -35.207031 18.921875 -35.9375 C 20.484375 -36.59375 21.75 -36.710938 22.71875 -36.296875 C 23.695312 -35.878906 24.460938 -35.125 25.015625 -34.03125 C 25.566406 -32.9375 25.972656 -31.695312 26.234375 -30.3125 C 26.492188 -28.925781 26.664062 -27.554688 26.75 -26.203125 C 26.84375 -24.859375 26.90625 -23.734375 26.9375 -22.828125 Z M 14.140625 -17.109375 C 14.109375 -16.972656 14.066406 -16.832031 14.015625 -16.6875 C 13.960938 -16.550781 13.898438 -16.414062 13.828125 -16.28125 C 14.765625 -16.238281 15.679688 -16.203125 16.578125 -16.171875 C 17.484375 -16.140625 18.390625 -16.101562 19.296875 -16.0625 C 19.253906 -17.175781 19.222656 -18.296875 19.203125 -19.421875 C 19.191406 -20.546875 19.171875 -21.679688 19.140625 -22.828125 C 19.097656 -23.273438 19.078125 -23.75 19.078125 -24.25 C 19.078125 -24.757812 19.078125 -25.273438 19.078125 -25.796875 C 18.492188 -25.097656 17.992188 -24.421875 17.578125 -23.765625 C 16.878906 -22.722656 16.242188 -21.644531 15.671875 -20.53125 C 15.097656 -19.425781 14.585938 -18.285156 14.140625 -17.109375 Z M 14.140625 -17.109375 "/></g></g></g><g fill="#f1efe7" fill-opacity="1"><g transform="translate(135.286499, 251.293519)"><g><path d="M 38.421875 -28.546875 C 39.046875 -23.316406 38.835938 -18.082031 37.796875 -12.84375 C 37.492188 -11.425781 37.132812 -9.960938 36.71875 -8.453125 C 36.300781 -6.941406 35.742188 -5.5 35.046875 -4.125 C 34.359375 -2.757812 33.472656 -1.539062 32.390625 -0.46875 C 31.316406 0.570312 30.09375 1.332031 28.71875 1.8125 C 27.351562 2.300781 25.957031 2.46875 24.53125 2.3125 C 23.113281 2.15625 21.785156 1.644531 20.546875 0.78125 C 19.847656 0.289062 19.238281 -0.28125 18.71875 -0.9375 C 17.539062 -0.03125 16.25 0.578125 14.84375 0.890625 C 13.4375 1.203125 12.03125 1.113281 10.625 0.625 C 9.226562 0.132812 7.921875 -0.851562 6.703125 -2.34375 C 5.734375 -3.519531 4.988281 -4.859375 4.46875 -6.359375 C 3.945312 -7.867188 3.570312 -9.421875 3.34375 -11.015625 C 3.125 -12.617188 2.945312 -14.164062 2.8125 -15.65625 C 2.5625 -18.25 2.523438 -20.847656 2.703125 -23.453125 C 2.878906 -26.054688 3.207031 -28.65625 3.6875 -31.25 C 3.863281 -32.21875 4.253906 -32.925781 4.859375 -33.375 C 5.460938 -33.832031 6.160156 -34.050781 6.953125 -34.03125 C 7.753906 -34.019531 8.503906 -33.8125 9.203125 -33.40625 C 9.898438 -33.007812 10.445312 -32.445312 10.84375 -31.71875 C 11.238281 -30.988281 11.351562 -30.140625 11.1875 -29.171875 C 10.695312 -26.503906 10.425781 -23.816406 10.375 -21.109375 C 10.320312 -18.410156 10.519531 -15.722656 10.96875 -13.046875 C 11.039062 -12.597656 11.144531 -11.914062 11.28125 -11 C 11.414062 -10.082031 11.628906 -9.210938 11.921875 -8.390625 C 12.222656 -7.578125 12.648438 -7.066406 13.203125 -6.859375 C 13.722656 -6.691406 14.144531 -6.753906 14.46875 -7.046875 C 14.800781 -7.335938 15.054688 -7.75 15.234375 -8.28125 C 15.410156 -8.820312 15.53125 -9.363281 15.59375 -9.90625 C 15.664062 -10.445312 15.6875 -10.875 15.65625 -11.1875 C 15.582031 -12.1875 15.796875 -12.988281 16.296875 -13.59375 C 16.804688 -14.207031 17.429688 -14.609375 18.171875 -14.796875 C 18.921875 -14.984375 19.679688 -14.972656 20.453125 -14.765625 C 21.234375 -14.554688 21.910156 -14.148438 22.484375 -13.546875 C 23.054688 -12.941406 23.378906 -12.15625 23.453125 -11.1875 C 23.453125 -10.800781 23.476562 -10.257812 23.53125 -9.5625 C 23.582031 -8.875 23.6875 -8.191406 23.84375 -7.515625 C 24 -6.835938 24.257812 -6.296875 24.625 -5.890625 C 24.988281 -5.492188 25.484375 -5.367188 26.109375 -5.515625 C 26.796875 -5.722656 27.351562 -6.191406 27.78125 -6.921875 C 28.21875 -7.648438 28.554688 -8.445312 28.796875 -9.3125 C 29.046875 -10.175781 29.257812 -10.882812 29.4375 -11.4375 C 30.226562 -14.25 30.707031 -17.082031 30.875 -19.9375 C 31.050781 -22.800781 30.96875 -25.671875 30.625 -28.546875 C 30.519531 -29.554688 30.691406 -30.351562 31.140625 -30.9375 C 31.597656 -31.53125 32.195312 -31.921875 32.9375 -32.109375 C 33.6875 -32.296875 34.457031 -32.296875 35.25 -32.109375 C 36.050781 -31.921875 36.753906 -31.53125 37.359375 -30.9375 C 37.960938 -30.351562 38.316406 -29.554688 38.421875 -28.546875 Z M 38.421875 -28.546875 "/></g></g></g><g fill="#f1efe7" fill-opacity="1"><g transform="translate(179.795361, 251.293519)"><g><path d="M 23.5 -36.140625 C 24.507812 -36.273438 25.378906 -36.144531 26.109375 -35.75 C 26.835938 -35.351562 27.398438 -34.789062 27.796875 -34.0625 C 28.191406 -33.332031 28.394531 -32.585938 28.40625 -31.828125 C 28.425781 -31.066406 28.210938 -30.378906 27.765625 -29.765625 C 27.316406 -29.160156 26.585938 -28.769531 25.578125 -28.59375 C 23.816406 -28.320312 22.050781 -28.046875 20.28125 -27.765625 C 18.507812 -27.492188 16.738281 -27.21875 14.96875 -26.9375 C 14.9375 -26.9375 14.789062 -26.910156 14.53125 -26.859375 C 14.269531 -26.804688 13.984375 -26.765625 13.671875 -26.734375 C 13.671875 -26.484375 13.65625 -26.304688 13.625 -26.203125 C 13.695312 -25.410156 13.644531 -24.570312 13.46875 -23.6875 C 13.289062 -22.800781 13.148438 -21.957031 13.046875 -21.15625 C 13.046875 -21.0625 13.035156 -20.953125 13.015625 -20.828125 C 13.003906 -20.703125 13 -20.570312 13 -20.4375 C 15.664062 -20.851562 18.316406 -21.078125 20.953125 -21.109375 C 21.960938 -21.140625 22.769531 -20.894531 23.375 -20.375 C 23.976562 -19.863281 24.375 -19.21875 24.5625 -18.4375 C 24.757812 -17.65625 24.757812 -16.878906 24.5625 -16.109375 C 24.375 -15.347656 23.976562 -14.695312 23.375 -14.15625 C 22.769531 -13.625 21.960938 -13.34375 20.953125 -13.3125 C 17.941406 -13.28125 14.941406 -12.953125 11.953125 -12.328125 C 11.679688 -10.273438 11.394531 -8.226562 11.09375 -6.1875 C 10.800781 -4.144531 10.5 -2.097656 10.1875 -0.046875 C 10.019531 0.953125 9.640625 1.675781 9.046875 2.125 C 8.453125 2.582031 7.765625 2.800781 6.984375 2.78125 C 6.210938 2.757812 5.460938 2.550781 4.734375 2.15625 C 4.003906 1.757812 3.4375 1.195312 3.03125 0.46875 C 2.632812 -0.257812 2.507812 -1.109375 2.65625 -2.078125 C 3.34375 -6.410156 3.953125 -10.742188 4.484375 -15.078125 C 5.023438 -19.410156 5.539062 -23.742188 6.03125 -28.078125 C 6.238281 -29.953125 6.773438 -31.375 7.640625 -32.34375 C 8.503906 -33.3125 9.875 -33.953125 11.75 -34.265625 C 13.6875 -34.609375 15.644531 -34.925781 17.625 -35.21875 C 19.601562 -35.519531 21.5625 -35.828125 23.5 -36.140625 Z M 23.5 -36.140625 "/></g></g></g><g fill="#f1efe7" fill-opacity="1"><g transform="translate(213.905001, 251.293519)"><g><path d="M 21.6875 -11.03125 C 22.6875 -10.988281 23.488281 -10.695312 24.09375 -10.15625 C 24.707031 -9.625 25.109375 -8.96875 25.296875 -8.1875 C 25.484375 -7.40625 25.484375 -6.625 25.296875 -5.84375 C 25.109375 -5.070312 24.707031 -4.429688 24.09375 -3.921875 C 23.488281 -3.421875 22.6875 -3.207031 21.6875 -3.28125 C 19.320312 -3.34375 16.960938 -3.320312 14.609375 -3.21875 C 12.253906 -3.113281 9.898438 -2.875 7.546875 -2.5 C 6.816406 -2.351562 6.050781 -2.410156 5.25 -2.671875 C 4.457031 -2.929688 3.789062 -3.359375 3.25 -3.953125 C 2.707031 -4.546875 2.507812 -5.304688 2.65625 -6.234375 C 3.238281 -11.054688 3.882812 -15.859375 4.59375 -20.640625 C 5.3125 -25.421875 6.085938 -30.1875 6.921875 -34.9375 C 7.023438 -35.53125 7.234375 -36.050781 7.546875 -36.5 C 7.816406 -36.988281 8.210938 -37.390625 8.734375 -37.703125 C 9.253906 -38.015625 9.894531 -38.1875 10.65625 -38.21875 C 14.40625 -38.351562 18.148438 -38.285156 21.890625 -38.015625 C 22.898438 -37.941406 23.707031 -37.617188 24.3125 -37.046875 C 24.914062 -36.472656 25.3125 -35.796875 25.5 -35.015625 C 25.695312 -34.242188 25.695312 -33.472656 25.5 -32.703125 C 25.3125 -31.941406 24.914062 -31.316406 24.3125 -30.828125 C 23.707031 -30.347656 22.898438 -30.144531 21.890625 -30.21875 C 19.328125 -30.382812 16.710938 -30.46875 14.046875 -30.46875 C 13.867188 -29.46875 13.691406 -28.460938 13.515625 -27.453125 C 13.347656 -26.453125 13.191406 -25.445312 13.046875 -24.4375 C 14.472656 -24.40625 15.84375 -24.335938 17.15625 -24.234375 C 18.195312 -24.097656 19.109375 -23.695312 19.890625 -23.03125 C 20.671875 -22.375 21.0625 -21.472656 21.0625 -20.328125 C 21.0625 -19.671875 20.878906 -19.03125 20.515625 -18.40625 C 20.148438 -17.78125 19.671875 -17.273438 19.078125 -16.890625 C 18.492188 -16.515625 17.851562 -16.363281 17.15625 -16.4375 C 15.394531 -16.601562 13.628906 -16.671875 11.859375 -16.640625 C 11.710938 -15.671875 11.570312 -14.691406 11.4375 -13.703125 C 11.300781 -12.710938 11.164062 -11.71875 11.03125 -10.71875 C 12.789062 -10.882812 14.554688 -11.003906 16.328125 -11.078125 C 18.097656 -11.148438 19.882812 -11.132812 21.6875 -11.03125 Z M 21.6875 -11.03125 "/></g></g></g><g fill="#f1efe7" fill-opacity="1"><g transform="translate(245.258858, 251.293519)"><g><path d="M 23.140625 -12.578125 C 24.109375 -12.828125 24.945312 -12.785156 25.65625 -12.453125 C 26.375 -12.117188 26.929688 -11.601562 27.328125 -10.90625 C 27.722656 -10.21875 27.925781 -9.46875 27.9375 -8.65625 C 27.957031 -7.84375 27.75 -7.101562 27.3125 -6.4375 C 26.882812 -5.78125 26.1875 -5.316406 25.21875 -5.046875 C 23.445312 -4.554688 21.632812 -4.179688 19.78125 -3.921875 C 17.925781 -3.660156 16.085938 -3.648438 14.265625 -3.890625 C 12.453125 -4.140625 10.710938 -4.734375 9.046875 -5.671875 C 6.898438 -6.878906 5.257812 -8.554688 4.125 -10.703125 C 3 -12.859375 2.488281 -15.1875 2.59375 -17.6875 C 2.738281 -20.101562 3.347656 -22.421875 4.421875 -24.640625 C 5.492188 -26.859375 6.921875 -28.828125 8.703125 -30.546875 C 10.492188 -32.265625 12.523438 -33.582031 14.796875 -34.5 C 17.066406 -35.414062 19.429688 -35.769531 21.890625 -35.5625 C 22.898438 -35.5 23.707031 -35.179688 24.3125 -34.609375 C 24.914062 -34.035156 25.3125 -33.347656 25.5 -32.546875 C 25.695312 -31.753906 25.695312 -30.972656 25.5 -30.203125 C 25.3125 -29.441406 24.914062 -28.828125 24.3125 -28.359375 C 23.707031 -27.890625 22.898438 -27.691406 21.890625 -27.765625 C 20.085938 -27.898438 18.378906 -27.5625 16.765625 -26.75 C 15.160156 -25.9375 13.800781 -24.8125 12.6875 -23.375 C 11.582031 -21.9375 10.875 -20.316406 10.5625 -18.515625 C 10.25 -16.953125 10.320312 -15.691406 10.78125 -14.734375 C 11.25 -13.785156 11.953125 -13.078125 12.890625 -12.609375 C 13.828125 -12.140625 14.894531 -11.859375 16.09375 -11.765625 C 17.289062 -11.679688 18.503906 -11.71875 19.734375 -11.875 C 20.960938 -12.03125 22.097656 -12.265625 23.140625 -12.578125 Z M 23.140625 -12.578125 "/></g></g></g><g fill="#f1efe7" fill-opacity="1"><g transform="translate(278.952528, 251.293519)"><g><path d="M 23.71875 -35.78125 C 24.6875 -35.675781 25.460938 -35.316406 26.046875 -34.703125 C 26.640625 -34.097656 27.039062 -33.394531 27.25 -32.59375 C 27.457031 -31.800781 27.457031 -31.03125 27.25 -30.28125 C 27.039062 -29.539062 26.640625 -28.941406 26.046875 -28.484375 C 25.460938 -28.035156 24.6875 -27.882812 23.71875 -28.03125 C 22.082031 -28.238281 20.414062 -28.394531 18.71875 -28.5 C 18.476562 -24.6875 18.242188 -20.890625 18.015625 -17.109375 C 17.796875 -13.328125 17.5625 -9.546875 17.3125 -5.765625 C 17.28125 -4.765625 16.976562 -3.957031 16.40625 -3.34375 C 15.832031 -2.738281 15.15625 -2.34375 14.375 -2.15625 C 13.59375 -1.96875 12.820312 -1.96875 12.0625 -2.15625 C 11.300781 -2.34375 10.675781 -2.738281 10.1875 -3.34375 C 9.707031 -3.957031 9.484375 -4.765625 9.515625 -5.765625 C 9.753906 -9.546875 9.988281 -13.34375 10.21875 -17.15625 C 10.445312 -20.96875 10.679688 -24.765625 10.921875 -28.546875 C 9.359375 -28.515625 7.832031 -28.410156 6.34375 -28.234375 C 5.34375 -28.160156 4.535156 -28.347656 3.921875 -28.796875 C 3.316406 -29.253906 2.914062 -29.863281 2.71875 -30.625 C 2.53125 -31.382812 2.539062 -32.160156 2.75 -32.953125 C 2.957031 -33.753906 3.359375 -34.441406 3.953125 -35.015625 C 4.546875 -35.585938 5.34375 -35.925781 6.34375 -36.03125 C 12.132812 -36.625 17.925781 -36.539062 23.71875 -35.78125 Z M 23.71875 -35.78125 "/></g></g></g></svg>